solid ASCII
  facet normal -0.000000e+00 0.000000e+00 1.000000e+00
    outer loop
      vertex   -2.050000e+01 3.750000e-01 3.750000e-01
      vertex   -2.050000e+01 -6.250000e-01 3.750000e-01
      vertex   -1.900000e+01 3.750000e-01 3.750000e-01
    endloop
  endfacet
  facet normal 0.000000e+00 0.000000e+00 1.000000e+00
    outer loop
      vertex   -1.900000e+01 3.750000e-01 3.750000e-01
      vertex   -2.050000e+01 -6.250000e-01 3.750000e-01
      vertex   -1.900000e+01 -6.250000e-01 3.750000e-01
    endloop
  endfacet
  facet normal -1.731948e-14 1.000000e+00 0.000000e+00
    outer loop
      vertex   -2.050000e+01 -6.250000e-01 3.750000e-01
      vertex   -2.050000e+01 -6.250000e-01 1.125000e+00
      vertex   -1.900000e+01 -6.250000e-01 3.750000e-01
    endloop
  endfacet
  facet normal -1.731948e-14 1.000000e+00 0.000000e+00
    outer loop
      vertex   -1.900000e+01 -6.250000e-01 3.750000e-01
      vertex   -2.050000e+01 -6.250000e-01 1.125000e+00
      vertex   -1.900000e+01 -6.250000e-01 1.125000e+00
    endloop
  endfacet
  facet normal 1.153709e-29 -6.661338e-16 -1.000000e+00
    outer loop
      vertex   -2.050000e+01 -6.250000e-01 1.125000e+00
      vertex   -2.050000e+01 3.750000e-01 1.125000e+00
      vertex   -1.900000e+01 -6.250000e-01 1.125000e+00
    endloop
  endfacet
  facet normal 1.143848e-29 -6.661338e-16 -1.000000e+00
    outer loop
      vertex   -1.900000e+01 -6.250000e-01 1.125000e+00
      vertex   -2.050000e+01 3.750000e-01 1.125000e+00
      vertex   -1.900000e+01 3.750000e-01 1.125000e+00
    endloop
  endfacet
  facet normal 1.720846e-14 -1.000000e+00 -1.480297e-16
    outer loop
      vertex   -2.050000e+01 3.750000e-01 1.125000e+00
      vertex   -2.050000e+01 3.750000e-01 3.750000e-01
      vertex   -1.900000e+01 3.750000e-01 1.125000e+00
    endloop
  endfacet
  facet normal 1.724546e-14 -1.000000e+00 -2.220446e-16
    outer loop
      vertex   -1.900000e+01 3.750000e-01 1.125000e+00
      vertex   -2.050000e+01 3.750000e-01 3.750000e-01
      vertex   -1.900000e+01 3.750000e-01 3.750000e-01
    endloop
  endfacet
  facet normal -1.000000e+00 7.105427e-15 1.577722e-30
    outer loop
      vertex   -1.900000e+01 3.750000e-01 1.125000e+00
      vertex   -1.900000e+01 3.750000e-01 3.750000e-01
      vertex   -1.900000e+01 -6.250000e-01 1.125000e+00
    endloop
  endfacet
  facet normal -1.000000e+00 7.105427e-15 0.000000e+00
    outer loop
      vertex   -1.900000e+01 -6.250000e-01 1.125000e+00
      vertex   -1.900000e+01 3.750000e-01 3.750000e-01
      vertex   -1.900000e+01 -6.250000e-01 3.750000e-01
    endloop
  endfacet
  facet normal 1.720846e-14 -1.000000e+00 -1.480297e-16
    outer loop
      vertex   2.050000e+01 3.750000e-01 3.750000e-01
      vertex   2.050000e+01 3.750000e-01 1.125000e+00
      vertex   1.900000e+01 3.750000e-01 3.750000e-01
    endloop
  endfacet
  facet normal 1.720846e-14 -1.000000e+00 -1.480297e-16
    outer loop
      vertex   1.900000e+01 3.750000e-01 3.750000e-01
      vertex   2.050000e+01 3.750000e-01 1.125000e+00
      vertex   1.900000e+01 3.750000e-01 1.125000e+00
    endloop
  endfacet
  facet normal 1.146314e-29 -6.661338e-16 -1.000000e+00
    outer loop
      vertex   2.050000e+01 3.750000e-01 1.125000e+00
      vertex   2.050000e+01 -6.250000e-01 1.125000e+00
      vertex   1.900000e+01 3.750000e-01 1.125000e+00
    endloop
  endfacet
  facet normal 1.143848e-29 -6.661338e-16 -1.000000e+00
    outer loop
      vertex   1.900000e+01 3.750000e-01 1.125000e+00
      vertex   2.050000e+01 -6.250000e-01 1.125000e+00
      vertex   1.900000e+01 -6.250000e-01 1.125000e+00
    endloop
  endfacet
  facet normal -1.717145e-14 1.000000e+00 0.000000e+00
    outer loop
      vertex   2.050000e+01 -6.250000e-01 1.125000e+00
      vertex   2.050000e+01 -6.250000e-01 3.750000e-01
      vertex   1.900000e+01 -6.250000e-01 1.125000e+00
    endloop
  endfacet
  facet normal -1.717145e-14 1.000000e+00 0.000000e+00
    outer loop
      vertex   1.900000e+01 -6.250000e-01 1.125000e+00
      vertex   2.050000e+01 -6.250000e-01 3.750000e-01
      vertex   1.900000e+01 -6.250000e-01 3.750000e-01
    endloop
  endfacet
  facet normal 0.000000e+00 0.000000e+00 1.000000e+00
    outer loop
      vertex   2.050000e+01 -6.250000e-01 3.750000e-01
      vertex   2.050000e+01 3.750000e-01 3.750000e-01
      vertex   1.900000e+01 -6.250000e-01 3.750000e-01
    endloop
  endfacet
  facet normal 0.000000e+00 -0.000000e+00 1.000000e+00
    outer loop
      vertex   1.900000e+01 -6.250000e-01 3.750000e-01
      vertex   2.050000e+01 3.750000e-01 3.750000e-01
      vertex   1.900000e+01 3.750000e-01 3.750000e-01
    endloop
  endfacet
  facet normal 1.000000e+00 1.776357e-14 2.629536e-30
    outer loop
      vertex   1.900000e+01 3.750000e-01 3.750000e-01
      vertex   1.900000e+01 3.750000e-01 1.125000e+00
      vertex   1.900000e+01 -6.250000e-01 3.750000e-01
    endloop
  endfacet
  facet normal 1.000000e+00 1.776357e-14 -0.000000e+00
    outer loop
      vertex   1.900000e+01 -6.250000e-01 3.750000e-01
      vertex   1.900000e+01 3.750000e-01 1.125000e+00
      vertex   1.900000e+01 -6.250000e-01 1.125000e+00
    endloop
  endfacet
  facet normal -1.000000e+00 -0.000000e+00 -0.000000e+00
    outer loop
      vertex   -2.037500e+01 1.625000e+00 2.250000e+00
      vertex   -2.037500e+01 1.625000e+00 1.750000e+00
      vertex   -2.037500e+01 1.375000e+00 2.250000e+00
    endloop
  endfacet
  facet normal -1.000000e+00 0.000000e+00 0.000000e+00
    outer loop
      vertex   -2.037500e+01 1.375000e+00 2.250000e+00
      vertex   -2.037500e+01 1.625000e+00 1.750000e+00
      vertex   -2.037500e+01 1.375000e+00 1.750000e+00
    endloop
  endfacet
  facet normal 1.000000e+00 0.000000e+00 -0.000000e+00
    outer loop
      vertex   2.037500e+01 1.625000e+00 1.750000e+00
      vertex   2.037500e+01 1.625000e+00 2.250000e+00
      vertex   2.037500e+01 1.375000e+00 1.750000e+00
    endloop
  endfacet
  facet normal 1.000000e+00 0.000000e+00 0.000000e+00
    outer loop
      vertex   2.037500e+01 1.375000e+00 1.750000e+00
      vertex   2.037500e+01 1.625000e+00 2.250000e+00
      vertex   2.037500e+01 1.375000e+00 2.250000e+00
    endloop
  endfacet
  facet normal -1.000000e+00 3.552714e-15 1.421085e-14
    outer loop
      vertex   -2.050000e+01 3.750000e-01 3.750000e-01
      vertex   -2.050000e+01 8.750000e-01 0.000000e+00
      vertex   -2.050000e+01 -6.250000e-01 3.750000e-01
    endloop
  endfacet
  facet normal -1.000000e+00 0.000000e+00 -0.000000e+00
    outer loop
      vertex   -2.050000e+01 -6.250000e-01 3.750000e-01
      vertex   -2.050000e+01 8.750000e-01 0.000000e+00
      vertex   -2.050000e+01 -1.625000e+00 0.000000e+00
    endloop
  endfacet
  facet normal -1.000000e+00 1.421085e-15 -3.789561e-15
    outer loop
      vertex   -2.050000e+01 -6.250000e-01 3.750000e-01
      vertex   -2.050000e+01 -1.625000e+00 0.000000e+00
      vertex   -2.050000e+01 -1.125000e+00 1.125000e+00
    endloop
  endfacet
  facet normal -1.000000e+00 -7.105427e-15 -2.670207e-27
    outer loop
      vertex   -2.050000e+01 -1.125000e+00 1.125000e+00
      vertex   -2.050000e+01 -1.625000e+00 0.000000e+00
      vertex   -2.050000e+01 -1.625000e+00 1.125000e+00
    endloop
  endfacet
  facet normal -1.000000e+00 -7.105427e-15 0.000000e+00
    outer loop
      vertex   -2.050000e+01 8.750000e-01 0.000000e+00
      vertex   -2.050000e+01 3.750000e-01 3.750000e-01
      vertex   -2.050000e+01 8.750000e-01 7.500000e-01
    endloop
  endfacet
  facet normal -1.000000e+00 -7.105427e-15 -1.051815e-30
    outer loop
      vertex   -2.050000e+01 8.750000e-01 7.500000e-01
      vertex   -2.050000e+01 3.750000e-01 3.750000e-01
      vertex   -2.050000e+01 3.750000e-01 1.125000e+00
    endloop
  endfacet
  facet normal -1.000000e+00 7.105427e-15 1.894781e-14
    outer loop
      vertex   -2.050000e+01 8.750000e-01 7.500000e-01
      vertex   -2.050000e+01 3.750000e-01 1.125000e+00
      vertex   -2.050000e+01 1.375000e+00 7.500000e-01
    endloop
  endfacet
  facet normal -1.000000e+00 -8.881784e-16 -2.368476e-15
    outer loop
      vertex   -2.050000e+01 1.375000e+00 7.500000e-01
      vertex   -2.050000e+01 3.750000e-01 1.125000e+00
      vertex   -2.050000e+01 1.375000e+00 2.250000e+00
    endloop
  endfacet
  facet normal -1.000000e+00 1.421085e-15 -4.421155e-15
    outer loop
      vertex   -2.050000e+01 1.375000e+00 2.250000e+00
      vertex   -2.050000e+01 3.750000e-01 1.125000e+00
      vertex   -2.050000e+01 -1.125000e+00 2.250000e+00
    endloop
  endfacet
  facet normal -1.000000e+00 3.552714e-15 -1.578984e-15
    outer loop
      vertex   -2.050000e+01 -1.125000e+00 2.250000e+00
      vertex   -2.050000e+01 3.750000e-01 1.125000e+00
      vertex   -2.050000e+01 -6.250000e-01 1.125000e+00
    endloop
  endfacet
  facet normal -1.000000e+00 7.105427e-15 1.402419e-30
    outer loop
      vertex   -2.050000e+01 -1.125000e+00 2.250000e+00
      vertex   -2.050000e+01 -6.250000e-01 1.125000e+00
      vertex   -2.050000e+01 -1.125000e+00 1.125000e+00
    endloop
  endfacet
  facet normal -1.000000e+00 7.105427e-15 0.000000e+00
    outer loop
      vertex   -2.050000e+01 -1.125000e+00 1.125000e+00
      vertex   -2.050000e+01 -6.250000e-01 1.125000e+00
      vertex   -2.050000e+01 -6.250000e-01 3.750000e-01
    endloop
  endfacet
  facet normal 6.796091e-01 7.335745e-01 -0.000000e+00
    outer loop
      vertex   1.081250e+01 1.375000e+00 9.765625e-01
      vertex   1.081250e+01 1.375000e+00 1.125000e+00
      vertex   1.093378e+01 1.262638e+00 9.765625e-01
    endloop
  endfacet
  facet normal 6.796091e-01 7.335745e-01 -0.000000e+00
    outer loop
      vertex   1.093378e+01 1.262638e+00 9.765625e-01
      vertex   1.081250e+01 1.375000e+00 1.125000e+00
      vertex   1.093378e+01 1.262638e+00 1.125000e+00
    endloop
  endfacet
  facet normal 6.032732e-01 7.975346e-01 -0.000000e+00
    outer loop
      vertex   1.093378e+01 1.262638e+00 9.765625e-01
      vertex   1.093378e+01 1.262638e+00 1.125000e+00
      vertex   1.106564e+01 1.162896e+00 9.765625e-01
    endloop
  endfacet
  facet normal 6.032732e-01 7.975346e-01 -0.000000e+00
    outer loop
      vertex   1.106564e+01 1.162896e+00 9.765625e-01
      vertex   1.093378e+01 1.262638e+00 1.125000e+00
      vertex   1.106564e+01 1.162896e+00 1.125000e+00
    endloop
  endfacet
  facet normal 5.209541e-01 8.535847e-01 -0.000000e+00
    outer loop
      vertex   1.106564e+01 1.162896e+00 9.765625e-01
      vertex   1.106564e+01 1.162896e+00 1.125000e+00
      vertex   1.120677e+01 1.076765e+00 9.765625e-01
    endloop
  endfacet
  facet normal 5.209541e-01 8.535847e-01 -0.000000e+00
    outer loop
      vertex   1.120677e+01 1.076765e+00 9.765625e-01
      vertex   1.106564e+01 1.162896e+00 1.125000e+00
      vertex   1.120677e+01 1.076765e+00 1.125000e+00
    endloop
  endfacet
  facet normal 4.334682e-01 9.011689e-01 -0.000000e+00
    outer loop
      vertex   1.120677e+01 1.076765e+00 9.765625e-01
      vertex   1.120677e+01 1.076765e+00 1.125000e+00
      vertex   1.135576e+01 1.005098e+00 9.765625e-01
    endloop
  endfacet
  facet normal 4.334682e-01 9.011689e-01 -0.000000e+00
    outer loop
      vertex   1.135576e+01 1.005098e+00 9.765625e-01
      vertex   1.120677e+01 1.076765e+00 1.125000e+00
      vertex   1.135576e+01 1.005098e+00 1.125000e+00
    endloop
  endfacet
  facet normal 3.416830e-01 9.398152e-01 -0.000000e+00
    outer loop
      vertex   1.135576e+01 1.005098e+00 9.765625e-01
      vertex   1.135576e+01 1.005098e+00 1.125000e+00
      vertex   1.151115e+01 9.486057e-01 9.765625e-01
    endloop
  endfacet
  facet normal 3.416830e-01 9.398152e-01 -0.000000e+00
    outer loop
      vertex   1.151115e+01 9.486057e-01 9.765625e-01
      vertex   1.135576e+01 1.005098e+00 1.125000e+00
      vertex   1.151115e+01 9.486057e-01 1.125000e+00
    endloop
  endfacet
  facet normal 2.465091e-01 9.691405e-01 -0.000000e+00
    outer loop
      vertex   1.151115e+01 9.486057e-01 9.765625e-01
      vertex   1.151115e+01 9.486057e-01 1.125000e+00
      vertex   1.167138e+01 9.078494e-01 9.765625e-01
    endloop
  endfacet
  facet normal 2.465091e-01 9.691405e-01 -0.000000e+00
    outer loop
      vertex   1.167138e+01 9.078494e-01 9.765625e-01
      vertex   1.151115e+01 9.486057e-01 1.125000e+00
      vertex   1.167138e+01 9.078494e-01 1.125000e+00
    endloop
  endfacet
  facet normal 1.488902e-01 9.888537e-01 -0.000000e+00
    outer loop
      vertex   1.167138e+01 9.078494e-01 9.765625e-01
      vertex   1.167138e+01 9.078494e-01 1.125000e+00
      vertex   1.183487e+01 8.832328e-01 9.765625e-01
    endloop
  endfacet
  facet normal 1.488902e-01 9.888537e-01 -0.000000e+00
    outer loop
      vertex   1.183487e+01 8.832328e-01 9.765625e-01
      vertex   1.167138e+01 9.078494e-01 1.125000e+00
      vertex   1.183487e+01 8.832328e-01 1.125000e+00
    endloop
  endfacet
  facet normal 4.979470e-02 9.987595e-01 -0.000000e+00
    outer loop
      vertex   1.183487e+01 8.832328e-01 9.765625e-01
      vertex   1.183487e+01 8.832328e-01 1.125000e+00
      vertex   1.200000e+01 8.750000e-01 9.765625e-01
    endloop
  endfacet
  facet normal 4.979470e-02 9.987595e-01 -0.000000e+00
    outer loop
      vertex   1.200000e+01 8.750000e-01 9.765625e-01
      vertex   1.183487e+01 8.832328e-01 1.125000e+00
      vertex   1.200000e+01 8.750000e-01 1.125000e+00
    endloop
  endfacet
  facet normal -4.979470e-02 9.987595e-01 0.000000e+00
    outer loop
      vertex   1.200000e+01 8.750000e-01 9.765625e-01
      vertex   1.200000e+01 8.750000e-01 1.125000e+00
      vertex   1.216513e+01 8.832328e-01 9.765625e-01
    endloop
  endfacet
  facet normal -4.979470e-02 9.987595e-01 0.000000e+00
    outer loop
      vertex   1.216513e+01 8.832328e-01 9.765625e-01
      vertex   1.200000e+01 8.750000e-01 1.125000e+00
      vertex   1.216513e+01 8.832328e-01 1.125000e+00
    endloop
  endfacet
  facet normal -1.488902e-01 9.888537e-01 0.000000e+00
    outer loop
      vertex   1.216513e+01 8.832328e-01 9.765625e-01
      vertex   1.216513e+01 8.832328e-01 1.125000e+00
      vertex   1.232862e+01 9.078494e-01 9.765625e-01
    endloop
  endfacet
  facet normal -1.488902e-01 9.888537e-01 0.000000e+00
    outer loop
      vertex   1.232862e+01 9.078494e-01 9.765625e-01
      vertex   1.216513e+01 8.832328e-01 1.125000e+00
      vertex   1.232862e+01 9.078494e-01 1.125000e+00
    endloop
  endfacet
  facet normal -2.465091e-01 9.691405e-01 0.000000e+00
    outer loop
      vertex   1.232862e+01 9.078494e-01 9.765625e-01
      vertex   1.232862e+01 9.078494e-01 1.125000e+00
      vertex   1.248885e+01 9.486057e-01 9.765625e-01
    endloop
  endfacet
  facet normal -2.465091e-01 9.691405e-01 0.000000e+00
    outer loop
      vertex   1.248885e+01 9.486057e-01 9.765625e-01
      vertex   1.232862e+01 9.078494e-01 1.125000e+00
      vertex   1.248885e+01 9.486057e-01 1.125000e+00
    endloop
  endfacet
  facet normal -3.416830e-01 9.398152e-01 0.000000e+00
    outer loop
      vertex   1.248885e+01 9.486057e-01 9.765625e-01
      vertex   1.248885e+01 9.486057e-01 1.125000e+00
      vertex   1.264424e+01 1.005098e+00 9.765625e-01
    endloop
  endfacet
  facet normal -3.416830e-01 9.398152e-01 0.000000e+00
    outer loop
      vertex   1.264424e+01 1.005098e+00 9.765625e-01
      vertex   1.248885e+01 9.486057e-01 1.125000e+00
      vertex   1.264424e+01 1.005098e+00 1.125000e+00
    endloop
  endfacet
  facet normal -4.334682e-01 9.011689e-01 0.000000e+00
    outer loop
      vertex   1.264424e+01 1.005098e+00 9.765625e-01
      vertex   1.264424e+01 1.005098e+00 1.125000e+00
      vertex   1.279323e+01 1.076765e+00 9.765625e-01
    endloop
  endfacet
  facet normal -4.334682e-01 9.011689e-01 0.000000e+00
    outer loop
      vertex   1.279323e+01 1.076765e+00 9.765625e-01
      vertex   1.264424e+01 1.005098e+00 1.125000e+00
      vertex   1.279323e+01 1.076765e+00 1.125000e+00
    endloop
  endfacet
  facet normal -5.209541e-01 8.535847e-01 0.000000e+00
    outer loop
      vertex   1.279323e+01 1.076765e+00 9.765625e-01
      vertex   1.279323e+01 1.076765e+00 1.125000e+00
      vertex   1.293436e+01 1.162896e+00 9.765625e-01
    endloop
  endfacet
  facet normal -5.209541e-01 8.535847e-01 0.000000e+00
    outer loop
      vertex   1.293436e+01 1.162896e+00 9.765625e-01
      vertex   1.279323e+01 1.076765e+00 1.125000e+00
      vertex   1.293436e+01 1.162896e+00 1.125000e+00
    endloop
  endfacet
  facet normal -6.032732e-01 7.975346e-01 0.000000e+00
    outer loop
      vertex   1.293436e+01 1.162896e+00 9.765625e-01
      vertex   1.293436e+01 1.162896e+00 1.125000e+00
      vertex   1.306622e+01 1.262638e+00 9.765625e-01
    endloop
  endfacet
  facet normal -6.032732e-01 7.975346e-01 0.000000e+00
    outer loop
      vertex   1.306622e+01 1.262638e+00 9.765625e-01
      vertex   1.293436e+01 1.162896e+00 1.125000e+00
      vertex   1.306622e+01 1.262638e+00 1.125000e+00
    endloop
  endfacet
  facet normal -6.796091e-01 7.335745e-01 0.000000e+00
    outer loop
      vertex   1.306622e+01 1.262638e+00 9.765625e-01
      vertex   1.306622e+01 1.262638e+00 1.125000e+00
      vertex   1.318750e+01 1.375000e+00 9.765625e-01
    endloop
  endfacet
  facet normal -6.796091e-01 7.335745e-01 0.000000e+00
    outer loop
      vertex   1.318750e+01 1.375000e+00 9.765625e-01
      vertex   1.306622e+01 1.262638e+00 1.125000e+00
      vertex   1.318750e+01 1.375000e+00 1.125000e+00
    endloop
  endfacet
  facet normal 0.000000e+00 0.000000e+00 1.000000e+00
    outer loop
      vertex   1.318750e+01 1.375000e+00 9.765625e-01
      vertex   1.081250e+01 1.375000e+00 9.765625e-01
      vertex   1.306622e+01 1.262638e+00 9.765625e-01
    endloop
  endfacet
  facet normal 0.000000e+00 0.000000e+00 1.000000e+00
    outer loop
      vertex   1.306622e+01 1.262638e+00 9.765625e-01
      vertex   1.081250e+01 1.375000e+00 9.765625e-01
      vertex   1.093378e+01 1.262638e+00 9.765625e-01
    endloop
  endfacet
  facet normal 0.000000e+00 0.000000e+00 1.000000e+00
    outer loop
      vertex   1.306622e+01 1.262638e+00 9.765625e-01
      vertex   1.093378e+01 1.262638e+00 9.765625e-01
      vertex   1.293436e+01 1.162896e+00 9.765625e-01
    endloop
  endfacet
  facet normal 0.000000e+00 0.000000e+00 1.000000e+00
    outer loop
      vertex   1.293436e+01 1.162896e+00 9.765625e-01
      vertex   1.093378e+01 1.262638e+00 9.765625e-01
      vertex   1.106564e+01 1.162896e+00 9.765625e-01
    endloop
  endfacet
  facet normal 0.000000e+00 0.000000e+00 1.000000e+00
    outer loop
      vertex   1.293436e+01 1.162896e+00 9.765625e-01
      vertex   1.106564e+01 1.162896e+00 9.765625e-01
      vertex   1.279323e+01 1.076765e+00 9.765625e-01
    endloop
  endfacet
  facet normal 0.000000e+00 0.000000e+00 1.000000e+00
    outer loop
      vertex   1.279323e+01 1.076765e+00 9.765625e-01
      vertex   1.106564e+01 1.162896e+00 9.765625e-01
      vertex   1.120677e+01 1.076765e+00 9.765625e-01
    endloop
  endfacet
  facet normal 0.000000e+00 0.000000e+00 1.000000e+00
    outer loop
      vertex   1.279323e+01 1.076765e+00 9.765625e-01
      vertex   1.120677e+01 1.076765e+00 9.765625e-01
      vertex   1.264424e+01 1.005098e+00 9.765625e-01
    endloop
  endfacet
  facet normal 0.000000e+00 0.000000e+00 1.000000e+00
    outer loop
      vertex   1.264424e+01 1.005098e+00 9.765625e-01
      vertex   1.120677e+01 1.076765e+00 9.765625e-01
      vertex   1.135576e+01 1.005098e+00 9.765625e-01
    endloop
  endfacet
  facet normal 0.000000e+00 0.000000e+00 1.000000e+00
    outer loop
      vertex   1.264424e+01 1.005098e+00 9.765625e-01
      vertex   1.135576e+01 1.005098e+00 9.765625e-01
      vertex   1.248885e+01 9.486057e-01 9.765625e-01
    endloop
  endfacet
  facet normal 0.000000e+00 0.000000e+00 1.000000e+00
    outer loop
      vertex   1.248885e+01 9.486057e-01 9.765625e-01
      vertex   1.135576e+01 1.005098e+00 9.765625e-01
      vertex   1.151115e+01 9.486057e-01 9.765625e-01
    endloop
  endfacet
  facet normal 0.000000e+00 0.000000e+00 1.000000e+00
    outer loop
      vertex   1.248885e+01 9.486057e-01 9.765625e-01
      vertex   1.151115e+01 9.486057e-01 9.765625e-01
      vertex   1.232862e+01 9.078494e-01 9.765625e-01
    endloop
  endfacet
  facet normal 0.000000e+00 0.000000e+00 1.000000e+00
    outer loop
      vertex   1.232862e+01 9.078494e-01 9.765625e-01
      vertex   1.151115e+01 9.486057e-01 9.765625e-01
      vertex   1.167138e+01 9.078494e-01 9.765625e-01
    endloop
  endfacet
  facet normal 0.000000e+00 0.000000e+00 1.000000e+00
    outer loop
      vertex   1.232862e+01 9.078494e-01 9.765625e-01
      vertex   1.167138e+01 9.078494e-01 9.765625e-01
      vertex   1.216513e+01 8.832328e-01 9.765625e-01
    endloop
  endfacet
  facet normal 0.000000e+00 0.000000e+00 1.000000e+00
    outer loop
      vertex   1.216513e+01 8.832328e-01 9.765625e-01
      vertex   1.167138e+01 9.078494e-01 9.765625e-01
      vertex   1.183487e+01 8.832328e-01 9.765625e-01
    endloop
  endfacet
  facet normal 0.000000e+00 0.000000e+00 1.000000e+00
    outer loop
      vertex   1.216513e+01 8.832328e-01 9.765625e-01
      vertex   1.183487e+01 8.832328e-01 9.765625e-01
      vertex   1.200000e+01 8.750000e-01 9.765625e-01
    endloop
  endfacet
  facet normal 0.000000e+00 0.000000e+00 -1.000000e+00
    outer loop
      vertex   1.081250e+01 1.375000e+00 1.125000e+00
      vertex   1.318750e+01 1.375000e+00 1.125000e+00
      vertex   1.093378e+01 1.262638e+00 1.125000e+00
    endloop
  endfacet
  facet normal 0.000000e+00 0.000000e+00 -1.000000e+00
    outer loop
      vertex   1.093378e+01 1.262638e+00 1.125000e+00
      vertex   1.318750e+01 1.375000e+00 1.125000e+00
      vertex   1.306622e+01 1.262638e+00 1.125000e+00
    endloop
  endfacet
  facet normal 0.000000e+00 0.000000e+00 -1.000000e+00
    outer loop
      vertex   1.093378e+01 1.262638e+00 1.125000e+00
      vertex   1.306622e+01 1.262638e+00 1.125000e+00
      vertex   1.106564e+01 1.162896e+00 1.125000e+00
    endloop
  endfacet
  facet normal 0.000000e+00 0.000000e+00 -1.000000e+00
    outer loop
      vertex   1.106564e+01 1.162896e+00 1.125000e+00
      vertex   1.306622e+01 1.262638e+00 1.125000e+00
      vertex   1.293436e+01 1.162896e+00 1.125000e+00
    endloop
  endfacet
  facet normal 0.000000e+00 0.000000e+00 -1.000000e+00
    outer loop
      vertex   1.106564e+01 1.162896e+00 1.125000e+00
      vertex   1.293436e+01 1.162896e+00 1.125000e+00
      vertex   1.120677e+01 1.076765e+00 1.125000e+00
    endloop
  endfacet
  facet normal 0.000000e+00 0.000000e+00 -1.000000e+00
    outer loop
      vertex   1.120677e+01 1.076765e+00 1.125000e+00
      vertex   1.293436e+01 1.162896e+00 1.125000e+00
      vertex   1.279323e+01 1.076765e+00 1.125000e+00
    endloop
  endfacet
  facet normal 0.000000e+00 0.000000e+00 -1.000000e+00
    outer loop
      vertex   1.120677e+01 1.076765e+00 1.125000e+00
      vertex   1.279323e+01 1.076765e+00 1.125000e+00
      vertex   1.135576e+01 1.005098e+00 1.125000e+00
    endloop
  endfacet
  facet normal 0.000000e+00 0.000000e+00 -1.000000e+00
    outer loop
      vertex   1.135576e+01 1.005098e+00 1.125000e+00
      vertex   1.279323e+01 1.076765e+00 1.125000e+00
      vertex   1.264424e+01 1.005098e+00 1.125000e+00
    endloop
  endfacet
  facet normal 0.000000e+00 0.000000e+00 -1.000000e+00
    outer loop
      vertex   1.135576e+01 1.005098e+00 1.125000e+00
      vertex   1.264424e+01 1.005098e+00 1.125000e+00
      vertex   1.151115e+01 9.486057e-01 1.125000e+00
    endloop
  endfacet
  facet normal 0.000000e+00 0.000000e+00 -1.000000e+00
    outer loop
      vertex   1.151115e+01 9.486057e-01 1.125000e+00
      vertex   1.264424e+01 1.005098e+00 1.125000e+00
      vertex   1.248885e+01 9.486057e-01 1.125000e+00
    endloop
  endfacet
  facet normal 0.000000e+00 0.000000e+00 -1.000000e+00
    outer loop
      vertex   1.151115e+01 9.486057e-01 1.125000e+00
      vertex   1.248885e+01 9.486057e-01 1.125000e+00
      vertex   1.167138e+01 9.078494e-01 1.125000e+00
    endloop
  endfacet
  facet normal 0.000000e+00 0.000000e+00 -1.000000e+00
    outer loop
      vertex   1.167138e+01 9.078494e-01 1.125000e+00
      vertex   1.248885e+01 9.486057e-01 1.125000e+00
      vertex   1.232862e+01 9.078494e-01 1.125000e+00
    endloop
  endfacet
  facet normal 0.000000e+00 0.000000e+00 -1.000000e+00
    outer loop
      vertex   1.167138e+01 9.078494e-01 1.125000e+00
      vertex   1.232862e+01 9.078494e-01 1.125000e+00
      vertex   1.183487e+01 8.832328e-01 1.125000e+00
    endloop
  endfacet
  facet normal 0.000000e+00 0.000000e+00 -1.000000e+00
    outer loop
      vertex   1.183487e+01 8.832328e-01 1.125000e+00
      vertex   1.232862e+01 9.078494e-01 1.125000e+00
      vertex   1.216513e+01 8.832328e-01 1.125000e+00
    endloop
  endfacet
  facet normal 0.000000e+00 0.000000e+00 -1.000000e+00
    outer loop
      vertex   1.183487e+01 8.832328e-01 1.125000e+00
      vertex   1.216513e+01 8.832328e-01 1.125000e+00
      vertex   1.200000e+01 8.750000e-01 1.125000e+00
    endloop
  endfacet
  facet normal 6.796091e-01 7.335745e-01 -0.000000e+00
    outer loop
      vertex   -1.187500e+00 1.375000e+00 9.765625e-01
      vertex   -1.187500e+00 1.375000e+00 1.125000e+00
      vertex   -1.066215e+00 1.262638e+00 9.765625e-01
    endloop
  endfacet
  facet normal 6.796091e-01 7.335745e-01 -0.000000e+00
    outer loop
      vertex   -1.066215e+00 1.262638e+00 9.765625e-01
      vertex   -1.187500e+00 1.375000e+00 1.125000e+00
      vertex   -1.066215e+00 1.262638e+00 1.125000e+00
    endloop
  endfacet
  facet normal 6.032732e-01 7.975346e-01 -0.000000e+00
    outer loop
      vertex   -1.066215e+00 1.262638e+00 9.765625e-01
      vertex   -1.066215e+00 1.262638e+00 1.125000e+00
      vertex   -9.343556e-01 1.162896e+00 9.765625e-01
    endloop
  endfacet
  facet normal 6.032732e-01 7.975346e-01 -0.000000e+00
    outer loop
      vertex   -9.343556e-01 1.162896e+00 9.765625e-01
      vertex   -1.066215e+00 1.262638e+00 1.125000e+00
      vertex   -9.343556e-01 1.162896e+00 1.125000e+00
    endloop
  endfacet
  facet normal 5.209541e-01 8.535847e-01 -0.000000e+00
    outer loop
      vertex   -9.343556e-01 1.162896e+00 9.765625e-01
      vertex   -9.343556e-01 1.162896e+00 1.125000e+00
      vertex   -7.932291e-01 1.076765e+00 9.765625e-01
    endloop
  endfacet
  facet normal 5.209541e-01 8.535847e-01 -0.000000e+00
    outer loop
      vertex   -7.932291e-01 1.076765e+00 9.765625e-01
      vertex   -9.343556e-01 1.162896e+00 1.125000e+00
      vertex   -7.932291e-01 1.076765e+00 1.125000e+00
    endloop
  endfacet
  facet normal 4.334682e-01 9.011689e-01 -0.000000e+00
    outer loop
      vertex   -7.932291e-01 1.076765e+00 9.765625e-01
      vertex   -7.932291e-01 1.076765e+00 1.125000e+00
      vertex   -6.442353e-01 1.005098e+00 9.765625e-01
    endloop
  endfacet
  facet normal 4.334682e-01 9.011689e-01 -0.000000e+00
    outer loop
      vertex   -6.442353e-01 1.005098e+00 9.765625e-01
      vertex   -7.932291e-01 1.076765e+00 1.125000e+00
      vertex   -6.442353e-01 1.005098e+00 1.125000e+00
    endloop
  endfacet
  facet normal 3.416830e-01 9.398152e-01 -0.000000e+00
    outer loop
      vertex   -6.442353e-01 1.005098e+00 9.765625e-01
      vertex   -6.442353e-01 1.005098e+00 1.125000e+00
      vertex   -4.888519e-01 9.486057e-01 9.765625e-01
    endloop
  endfacet
  facet normal 3.416830e-01 9.398152e-01 -0.000000e+00
    outer loop
      vertex   -4.888519e-01 9.486057e-01 9.765625e-01
      vertex   -6.442353e-01 1.005098e+00 1.125000e+00
      vertex   -4.888519e-01 9.486057e-01 1.125000e+00
    endloop
  endfacet
  facet normal 2.465091e-01 9.691405e-01 -0.000000e+00
    outer loop
      vertex   -4.888519e-01 9.486057e-01 9.765625e-01
      vertex   -4.888519e-01 9.486057e-01 1.125000e+00
      vertex   -3.286200e-01 9.078494e-01 9.765625e-01
    endloop
  endfacet
  facet normal 2.465091e-01 9.691405e-01 -0.000000e+00
    outer loop
      vertex   -3.286200e-01 9.078494e-01 9.765625e-01
      vertex   -4.888519e-01 9.486057e-01 1.125000e+00
      vertex   -3.286200e-01 9.078494e-01 1.125000e+00
    endloop
  endfacet
  facet normal 1.488902e-01 9.888537e-01 -0.000000e+00
    outer loop
      vertex   -3.286200e-01 9.078494e-01 9.765625e-01
      vertex   -3.286200e-01 9.078494e-01 1.125000e+00
      vertex   -1.651289e-01 8.832328e-01 9.765625e-01
    endloop
  endfacet
  facet normal 1.488902e-01 9.888537e-01 -0.000000e+00
    outer loop
      vertex   -1.651289e-01 8.832328e-01 9.765625e-01
      vertex   -3.286200e-01 9.078494e-01 1.125000e+00
      vertex   -1.651289e-01 8.832328e-01 1.125000e+00
    endloop
  endfacet
  facet normal 4.979470e-02 9.987595e-01 -0.000000e+00
    outer loop
      vertex   -1.651289e-01 8.832328e-01 9.765625e-01
      vertex   -1.651289e-01 8.832328e-01 1.125000e+00
      vertex   -4.895472e-15 8.750000e-01 9.765625e-01
    endloop
  endfacet
  facet normal 4.979470e-02 9.987595e-01 -0.000000e+00
    outer loop
      vertex   -4.895472e-15 8.750000e-01 9.765625e-01
      vertex   -1.651289e-01 8.832328e-01 1.125000e+00
      vertex   -4.895472e-15 8.750000e-01 1.125000e+00
    endloop
  endfacet
  facet normal -4.979470e-02 9.987595e-01 0.000000e+00
    outer loop
      vertex   -4.895472e-15 8.750000e-01 9.765625e-01
      vertex   -4.895472e-15 8.750000e-01 1.125000e+00
      vertex   1.651289e-01 8.832328e-01 9.765625e-01
    endloop
  endfacet
  facet normal -4.979470e-02 9.987595e-01 0.000000e+00
    outer loop
      vertex   1.651289e-01 8.832328e-01 9.765625e-01
      vertex   -4.895472e-15 8.750000e-01 1.125000e+00
      vertex   1.651289e-01 8.832328e-01 1.125000e+00
    endloop
  endfacet
  facet normal -1.488902e-01 9.888537e-01 0.000000e+00
    outer loop
      vertex   1.651289e-01 8.832328e-01 9.765625e-01
      vertex   1.651289e-01 8.832328e-01 1.125000e+00
      vertex   3.286200e-01 9.078494e-01 9.765625e-01
    endloop
  endfacet
  facet normal -1.488902e-01 9.888537e-01 0.000000e+00
    outer loop
      vertex   3.286200e-01 9.078494e-01 9.765625e-01
      vertex   1.651289e-01 8.832328e-01 1.125000e+00
      vertex   3.286200e-01 9.078494e-01 1.125000e+00
    endloop
  endfacet
  facet normal -2.465091e-01 9.691405e-01 0.000000e+00
    outer loop
      vertex   3.286200e-01 9.078494e-01 9.765625e-01
      vertex   3.286200e-01 9.078494e-01 1.125000e+00
      vertex   4.888519e-01 9.486057e-01 9.765625e-01
    endloop
  endfacet
  facet normal -2.465091e-01 9.691405e-01 0.000000e+00
    outer loop
      vertex   4.888519e-01 9.486057e-01 9.765625e-01
      vertex   3.286200e-01 9.078494e-01 1.125000e+00
      vertex   4.888519e-01 9.486057e-01 1.125000e+00
    endloop
  endfacet
  facet normal -3.416830e-01 9.398152e-01 0.000000e+00
    outer loop
      vertex   4.888519e-01 9.486057e-01 9.765625e-01
      vertex   4.888519e-01 9.486057e-01 1.125000e+00
      vertex   6.442353e-01 1.005098e+00 9.765625e-01
    endloop
  endfacet
  facet normal -3.416830e-01 9.398152e-01 0.000000e+00
    outer loop
      vertex   6.442353e-01 1.005098e+00 9.765625e-01
      vertex   4.888519e-01 9.486057e-01 1.125000e+00
      vertex   6.442353e-01 1.005098e+00 1.125000e+00
    endloop
  endfacet
  facet normal -4.334682e-01 9.011689e-01 0.000000e+00
    outer loop
      vertex   6.442353e-01 1.005098e+00 9.765625e-01
      vertex   6.442353e-01 1.005098e+00 1.125000e+00
      vertex   7.932291e-01 1.076765e+00 9.765625e-01
    endloop
  endfacet
  facet normal -4.334682e-01 9.011689e-01 0.000000e+00
    outer loop
      vertex   7.932291e-01 1.076765e+00 9.765625e-01
      vertex   6.442353e-01 1.005098e+00 1.125000e+00
      vertex   7.932291e-01 1.076765e+00 1.125000e+00
    endloop
  endfacet
  facet normal -5.209541e-01 8.535847e-01 0.000000e+00
    outer loop
      vertex   7.932291e-01 1.076765e+00 9.765625e-01
      vertex   7.932291e-01 1.076765e+00 1.125000e+00
      vertex   9.343556e-01 1.162896e+00 9.765625e-01
    endloop
  endfacet
  facet normal -5.209541e-01 8.535847e-01 0.000000e+00
    outer loop
      vertex   9.343556e-01 1.162896e+00 9.765625e-01
      vertex   7.932291e-01 1.076765e+00 1.125000e+00
      vertex   9.343556e-01 1.162896e+00 1.125000e+00
    endloop
  endfacet
  facet normal -6.032732e-01 7.975346e-01 0.000000e+00
    outer loop
      vertex   9.343556e-01 1.162896e+00 9.765625e-01
      vertex   9.343556e-01 1.162896e+00 1.125000e+00
      vertex   1.066215e+00 1.262638e+00 9.765625e-01
    endloop
  endfacet
  facet normal -6.032732e-01 7.975346e-01 0.000000e+00
    outer loop
      vertex   1.066215e+00 1.262638e+00 9.765625e-01
      vertex   9.343556e-01 1.162896e+00 1.125000e+00
      vertex   1.066215e+00 1.262638e+00 1.125000e+00
    endloop
  endfacet
  facet normal -6.796091e-01 7.335745e-01 0.000000e+00
    outer loop
      vertex   1.066215e+00 1.262638e+00 9.765625e-01
      vertex   1.066215e+00 1.262638e+00 1.125000e+00
      vertex   1.187500e+00 1.375000e+00 9.765625e-01
    endloop
  endfacet
  facet normal -6.796091e-01 7.335745e-01 0.000000e+00
    outer loop
      vertex   1.187500e+00 1.375000e+00 9.765625e-01
      vertex   1.066215e+00 1.262638e+00 1.125000e+00
      vertex   1.187500e+00 1.375000e+00 1.125000e+00
    endloop
  endfacet
  facet normal 0.000000e+00 0.000000e+00 1.000000e+00
    outer loop
      vertex   1.187500e+00 1.375000e+00 9.765625e-01
      vertex   -1.187500e+00 1.375000e+00 9.765625e-01
      vertex   1.066215e+00 1.262638e+00 9.765625e-01
    endloop
  endfacet
  facet normal 0.000000e+00 0.000000e+00 1.000000e+00
    outer loop
      vertex   1.066215e+00 1.262638e+00 9.765625e-01
      vertex   -1.187500e+00 1.375000e+00 9.765625e-01
      vertex   -1.066215e+00 1.262638e+00 9.765625e-01
    endloop
  endfacet
  facet normal 0.000000e+00 0.000000e+00 1.000000e+00
    outer loop
      vertex   1.066215e+00 1.262638e+00 9.765625e-01
      vertex   -1.066215e+00 1.262638e+00 9.765625e-01
      vertex   9.343556e-01 1.162896e+00 9.765625e-01
    endloop
  endfacet
  facet normal 0.000000e+00 0.000000e+00 1.000000e+00
    outer loop
      vertex   9.343556e-01 1.162896e+00 9.765625e-01
      vertex   -1.066215e+00 1.262638e+00 9.765625e-01
      vertex   -9.343556e-01 1.162896e+00 9.765625e-01
    endloop
  endfacet
  facet normal 0.000000e+00 0.000000e+00 1.000000e+00
    outer loop
      vertex   9.343556e-01 1.162896e+00 9.765625e-01
      vertex   -9.343556e-01 1.162896e+00 9.765625e-01
      vertex   7.932291e-01 1.076765e+00 9.765625e-01
    endloop
  endfacet
  facet normal 0.000000e+00 0.000000e+00 1.000000e+00
    outer loop
      vertex   7.932291e-01 1.076765e+00 9.765625e-01
      vertex   -9.343556e-01 1.162896e+00 9.765625e-01
      vertex   -7.932291e-01 1.076765e+00 9.765625e-01
    endloop
  endfacet
  facet normal 0.000000e+00 0.000000e+00 1.000000e+00
    outer loop
      vertex   7.932291e-01 1.076765e+00 9.765625e-01
      vertex   -7.932291e-01 1.076765e+00 9.765625e-01
      vertex   6.442353e-01 1.005098e+00 9.765625e-01
    endloop
  endfacet
  facet normal 0.000000e+00 0.000000e+00 1.000000e+00
    outer loop
      vertex   6.442353e-01 1.005098e+00 9.765625e-01
      vertex   -7.932291e-01 1.076765e+00 9.765625e-01
      vertex   -6.442353e-01 1.005098e+00 9.765625e-01
    endloop
  endfacet
  facet normal 0.000000e+00 0.000000e+00 1.000000e+00
    outer loop
      vertex   6.442353e-01 1.005098e+00 9.765625e-01
      vertex   -6.442353e-01 1.005098e+00 9.765625e-01
      vertex   4.888519e-01 9.486057e-01 9.765625e-01
    endloop
  endfacet
  facet normal 0.000000e+00 0.000000e+00 1.000000e+00
    outer loop
      vertex   4.888519e-01 9.486057e-01 9.765625e-01
      vertex   -6.442353e-01 1.005098e+00 9.765625e-01
      vertex   -4.888519e-01 9.486057e-01 9.765625e-01
    endloop
  endfacet
  facet normal 0.000000e+00 0.000000e+00 1.000000e+00
    outer loop
      vertex   4.888519e-01 9.486057e-01 9.765625e-01
      vertex   -4.888519e-01 9.486057e-01 9.765625e-01
      vertex   3.286200e-01 9.078494e-01 9.765625e-01
    endloop
  endfacet
  facet normal 0.000000e+00 0.000000e+00 1.000000e+00
    outer loop
      vertex   3.286200e-01 9.078494e-01 9.765625e-01
      vertex   -4.888519e-01 9.486057e-01 9.765625e-01
      vertex   -3.286200e-01 9.078494e-01 9.765625e-01
    endloop
  endfacet
  facet normal 0.000000e+00 0.000000e+00 1.000000e+00
    outer loop
      vertex   3.286200e-01 9.078494e-01 9.765625e-01
      vertex   -3.286200e-01 9.078494e-01 9.765625e-01
      vertex   1.651289e-01 8.832328e-01 9.765625e-01
    endloop
  endfacet
  facet normal 0.000000e+00 0.000000e+00 1.000000e+00
    outer loop
      vertex   1.651289e-01 8.832328e-01 9.765625e-01
      vertex   -3.286200e-01 9.078494e-01 9.765625e-01
      vertex   -1.651289e-01 8.832328e-01 9.765625e-01
    endloop
  endfacet
  facet normal 0.000000e+00 0.000000e+00 1.000000e+00
    outer loop
      vertex   1.651289e-01 8.832328e-01 9.765625e-01
      vertex   -1.651289e-01 8.832328e-01 9.765625e-01
      vertex   -4.895472e-15 8.750000e-01 9.765625e-01
    endloop
  endfacet
  facet normal 0.000000e+00 0.000000e+00 -1.000000e+00
    outer loop
      vertex   -1.187500e+00 1.375000e+00 1.125000e+00
      vertex   1.187500e+00 1.375000e+00 1.125000e+00
      vertex   -1.066215e+00 1.262638e+00 1.125000e+00
    endloop
  endfacet
  facet normal 0.000000e+00 0.000000e+00 -1.000000e+00
    outer loop
      vertex   -1.066215e+00 1.262638e+00 1.125000e+00
      vertex   1.187500e+00 1.375000e+00 1.125000e+00
      vertex   1.066215e+00 1.262638e+00 1.125000e+00
    endloop
  endfacet
  facet normal 0.000000e+00 0.000000e+00 -1.000000e+00
    outer loop
      vertex   -1.066215e+00 1.262638e+00 1.125000e+00
      vertex   1.066215e+00 1.262638e+00 1.125000e+00
      vertex   -9.343556e-01 1.162896e+00 1.125000e+00
    endloop
  endfacet
  facet normal 0.000000e+00 0.000000e+00 -1.000000e+00
    outer loop
      vertex   -9.343556e-01 1.162896e+00 1.125000e+00
      vertex   1.066215e+00 1.262638e+00 1.125000e+00
      vertex   9.343556e-01 1.162896e+00 1.125000e+00
    endloop
  endfacet
  facet normal 0.000000e+00 0.000000e+00 -1.000000e+00
    outer loop
      vertex   -9.343556e-01 1.162896e+00 1.125000e+00
      vertex   9.343556e-01 1.162896e+00 1.125000e+00
      vertex   -7.932291e-01 1.076765e+00 1.125000e+00
    endloop
  endfacet
  facet normal 0.000000e+00 0.000000e+00 -1.000000e+00
    outer loop
      vertex   -7.932291e-01 1.076765e+00 1.125000e+00
      vertex   9.343556e-01 1.162896e+00 1.125000e+00
      vertex   7.932291e-01 1.076765e+00 1.125000e+00
    endloop
  endfacet
  facet normal 0.000000e+00 0.000000e+00 -1.000000e+00
    outer loop
      vertex   -7.932291e-01 1.076765e+00 1.125000e+00
      vertex   7.932291e-01 1.076765e+00 1.125000e+00
      vertex   -6.442353e-01 1.005098e+00 1.125000e+00
    endloop
  endfacet
  facet normal 0.000000e+00 0.000000e+00 -1.000000e+00
    outer loop
      vertex   -6.442353e-01 1.005098e+00 1.125000e+00
      vertex   7.932291e-01 1.076765e+00 1.125000e+00
      vertex   6.442353e-01 1.005098e+00 1.125000e+00
    endloop
  endfacet
  facet normal 0.000000e+00 0.000000e+00 -1.000000e+00
    outer loop
      vertex   -6.442353e-01 1.005098e+00 1.125000e+00
      vertex   6.442353e-01 1.005098e+00 1.125000e+00
      vertex   -4.888519e-01 9.486057e-01 1.125000e+00
    endloop
  endfacet
  facet normal 0.000000e+00 0.000000e+00 -1.000000e+00
    outer loop
      vertex   -4.888519e-01 9.486057e-01 1.125000e+00
      vertex   6.442353e-01 1.005098e+00 1.125000e+00
      vertex   4.888519e-01 9.486057e-01 1.125000e+00
    endloop
  endfacet
  facet normal 0.000000e+00 0.000000e+00 -1.000000e+00
    outer loop
      vertex   -4.888519e-01 9.486057e-01 1.125000e+00
      vertex   4.888519e-01 9.486057e-01 1.125000e+00
      vertex   -3.286200e-01 9.078494e-01 1.125000e+00
    endloop
  endfacet
  facet normal 0.000000e+00 0.000000e+00 -1.000000e+00
    outer loop
      vertex   -3.286200e-01 9.078494e-01 1.125000e+00
      vertex   4.888519e-01 9.486057e-01 1.125000e+00
      vertex   3.286200e-01 9.078494e-01 1.125000e+00
    endloop
  endfacet
  facet normal 0.000000e+00 0.000000e+00 -1.000000e+00
    outer loop
      vertex   -3.286200e-01 9.078494e-01 1.125000e+00
      vertex   3.286200e-01 9.078494e-01 1.125000e+00
      vertex   -1.651289e-01 8.832328e-01 1.125000e+00
    endloop
  endfacet
  facet normal 0.000000e+00 0.000000e+00 -1.000000e+00
    outer loop
      vertex   -1.651289e-01 8.832328e-01 1.125000e+00
      vertex   3.286200e-01 9.078494e-01 1.125000e+00
      vertex   1.651289e-01 8.832328e-01 1.125000e+00
    endloop
  endfacet
  facet normal 0.000000e+00 0.000000e+00 -1.000000e+00
    outer loop
      vertex   -1.651289e-01 8.832328e-01 1.125000e+00
      vertex   1.651289e-01 8.832328e-01 1.125000e+00
      vertex   -4.895472e-15 8.750000e-01 1.125000e+00
    endloop
  endfacet
  facet normal 6.796091e-01 7.335745e-01 -0.000000e+00
    outer loop
      vertex   -1.318750e+01 1.375000e+00 9.765625e-01
      vertex   -1.318750e+01 1.375000e+00 1.125000e+00
      vertex   -1.306622e+01 1.262638e+00 9.765625e-01
    endloop
  endfacet
  facet normal 6.796091e-01 7.335745e-01 -0.000000e+00
    outer loop
      vertex   -1.306622e+01 1.262638e+00 9.765625e-01
      vertex   -1.318750e+01 1.375000e+00 1.125000e+00
      vertex   -1.306622e+01 1.262638e+00 1.125000e+00
    endloop
  endfacet
  facet normal 6.032732e-01 7.975346e-01 -0.000000e+00
    outer loop
      vertex   -1.306622e+01 1.262638e+00 9.765625e-01
      vertex   -1.306622e+01 1.262638e+00 1.125000e+00
      vertex   -1.293436e+01 1.162896e+00 9.765625e-01
    endloop
  endfacet
  facet normal 6.032732e-01 7.975346e-01 -0.000000e+00
    outer loop
      vertex   -1.293436e+01 1.162896e+00 9.765625e-01
      vertex   -1.306622e+01 1.262638e+00 1.125000e+00
      vertex   -1.293436e+01 1.162896e+00 1.125000e+00
    endloop
  endfacet
  facet normal 5.209541e-01 8.535847e-01 -0.000000e+00
    outer loop
      vertex   -1.293436e+01 1.162896e+00 9.765625e-01
      vertex   -1.293436e+01 1.162896e+00 1.125000e+00
      vertex   -1.279323e+01 1.076765e+00 9.765625e-01
    endloop
  endfacet
  facet normal 5.209541e-01 8.535847e-01 -0.000000e+00
    outer loop
      vertex   -1.279323e+01 1.076765e+00 9.765625e-01
      vertex   -1.293436e+01 1.162896e+00 1.125000e+00
      vertex   -1.279323e+01 1.076765e+00 1.125000e+00
    endloop
  endfacet
  facet normal 4.334682e-01 9.011689e-01 -0.000000e+00
    outer loop
      vertex   -1.279323e+01 1.076765e+00 9.765625e-01
      vertex   -1.279323e+01 1.076765e+00 1.125000e+00
      vertex   -1.264424e+01 1.005098e+00 9.765625e-01
    endloop
  endfacet
  facet normal 4.334682e-01 9.011689e-01 -0.000000e+00
    outer loop
      vertex   -1.264424e+01 1.005098e+00 9.765625e-01
      vertex   -1.279323e+01 1.076765e+00 1.125000e+00
      vertex   -1.264424e+01 1.005098e+00 1.125000e+00
    endloop
  endfacet
  facet normal 3.416830e-01 9.398152e-01 -0.000000e+00
    outer loop
      vertex   -1.264424e+01 1.005098e+00 9.765625e-01
      vertex   -1.264424e+01 1.005098e+00 1.125000e+00
      vertex   -1.248885e+01 9.486057e-01 9.765625e-01
    endloop
  endfacet
  facet normal 3.416830e-01 9.398152e-01 -0.000000e+00
    outer loop
      vertex   -1.248885e+01 9.486057e-01 9.765625e-01
      vertex   -1.264424e+01 1.005098e+00 1.125000e+00
      vertex   -1.248885e+01 9.486057e-01 1.125000e+00
    endloop
  endfacet
  facet normal 2.465091e-01 9.691405e-01 -0.000000e+00
    outer loop
      vertex   -1.248885e+01 9.486057e-01 9.765625e-01
      vertex   -1.248885e+01 9.486057e-01 1.125000e+00
      vertex   -1.232862e+01 9.078494e-01 9.765625e-01
    endloop
  endfacet
  facet normal 2.465091e-01 9.691405e-01 -0.000000e+00
    outer loop
      vertex   -1.232862e+01 9.078494e-01 9.765625e-01
      vertex   -1.248885e+01 9.486057e-01 1.125000e+00
      vertex   -1.232862e+01 9.078494e-01 1.125000e+00
    endloop
  endfacet
  facet normal 1.488902e-01 9.888537e-01 -0.000000e+00
    outer loop
      vertex   -1.232862e+01 9.078494e-01 9.765625e-01
      vertex   -1.232862e+01 9.078494e-01 1.125000e+00
      vertex   -1.216513e+01 8.832328e-01 9.765625e-01
    endloop
  endfacet
  facet normal 1.488902e-01 9.888537e-01 -0.000000e+00
    outer loop
      vertex   -1.216513e+01 8.832328e-01 9.765625e-01
      vertex   -1.232862e+01 9.078494e-01 1.125000e+00
      vertex   -1.216513e+01 8.832328e-01 1.125000e+00
    endloop
  endfacet
  facet normal 4.979470e-02 9.987595e-01 -0.000000e+00
    outer loop
      vertex   -1.216513e+01 8.832328e-01 9.765625e-01
      vertex   -1.216513e+01 8.832328e-01 1.125000e+00
      vertex   -1.200000e+01 8.750000e-01 9.765625e-01
    endloop
  endfacet
  facet normal 4.979470e-02 9.987595e-01 -0.000000e+00
    outer loop
      vertex   -1.200000e+01 8.750000e-01 9.765625e-01
      vertex   -1.216513e+01 8.832328e-01 1.125000e+00
      vertex   -1.200000e+01 8.750000e-01 1.125000e+00
    endloop
  endfacet
  facet normal -4.979470e-02 9.987595e-01 0.000000e+00
    outer loop
      vertex   -1.200000e+01 8.750000e-01 9.765625e-01
      vertex   -1.200000e+01 8.750000e-01 1.125000e+00
      vertex   -1.183487e+01 8.832328e-01 9.765625e-01
    endloop
  endfacet
  facet normal -4.979470e-02 9.987595e-01 0.000000e+00
    outer loop
      vertex   -1.183487e+01 8.832328e-01 9.765625e-01
      vertex   -1.200000e+01 8.750000e-01 1.125000e+00
      vertex   -1.183487e+01 8.832328e-01 1.125000e+00
    endloop
  endfacet
  facet normal -1.488902e-01 9.888537e-01 0.000000e+00
    outer loop
      vertex   -1.183487e+01 8.832328e-01 9.765625e-01
      vertex   -1.183487e+01 8.832328e-01 1.125000e+00
      vertex   -1.167138e+01 9.078494e-01 9.765625e-01
    endloop
  endfacet
  facet normal -1.488902e-01 9.888537e-01 0.000000e+00
    outer loop
      vertex   -1.167138e+01 9.078494e-01 9.765625e-01
      vertex   -1.183487e+01 8.832328e-01 1.125000e+00
      vertex   -1.167138e+01 9.078494e-01 1.125000e+00
    endloop
  endfacet
  facet normal -2.465091e-01 9.691405e-01 0.000000e+00
    outer loop
      vertex   -1.167138e+01 9.078494e-01 9.765625e-01
      vertex   -1.167138e+01 9.078494e-01 1.125000e+00
      vertex   -1.151115e+01 9.486057e-01 9.765625e-01
    endloop
  endfacet
  facet normal -2.465091e-01 9.691405e-01 0.000000e+00
    outer loop
      vertex   -1.151115e+01 9.486057e-01 9.765625e-01
      vertex   -1.167138e+01 9.078494e-01 1.125000e+00
      vertex   -1.151115e+01 9.486057e-01 1.125000e+00
    endloop
  endfacet
  facet normal -3.416830e-01 9.398152e-01 0.000000e+00
    outer loop
      vertex   -1.151115e+01 9.486057e-01 9.765625e-01
      vertex   -1.151115e+01 9.486057e-01 1.125000e+00
      vertex   -1.135576e+01 1.005098e+00 9.765625e-01
    endloop
  endfacet
  facet normal -3.416830e-01 9.398152e-01 0.000000e+00
    outer loop
      vertex   -1.135576e+01 1.005098e+00 9.765625e-01
      vertex   -1.151115e+01 9.486057e-01 1.125000e+00
      vertex   -1.135576e+01 1.005098e+00 1.125000e+00
    endloop
  endfacet
  facet normal -4.334682e-01 9.011689e-01 0.000000e+00
    outer loop
      vertex   -1.135576e+01 1.005098e+00 9.765625e-01
      vertex   -1.135576e+01 1.005098e+00 1.125000e+00
      vertex   -1.120677e+01 1.076765e+00 9.765625e-01
    endloop
  endfacet
  facet normal -4.334682e-01 9.011689e-01 0.000000e+00
    outer loop
      vertex   -1.120677e+01 1.076765e+00 9.765625e-01
      vertex   -1.135576e+01 1.005098e+00 1.125000e+00
      vertex   -1.120677e+01 1.076765e+00 1.125000e+00
    endloop
  endfacet
  facet normal -5.209541e-01 8.535847e-01 0.000000e+00
    outer loop
      vertex   -1.120677e+01 1.076765e+00 9.765625e-01
      vertex   -1.120677e+01 1.076765e+00 1.125000e+00
      vertex   -1.106564e+01 1.162896e+00 9.765625e-01
    endloop
  endfacet
  facet normal -5.209541e-01 8.535847e-01 0.000000e+00
    outer loop
      vertex   -1.106564e+01 1.162896e+00 9.765625e-01
      vertex   -1.120677e+01 1.076765e+00 1.125000e+00
      vertex   -1.106564e+01 1.162896e+00 1.125000e+00
    endloop
  endfacet
  facet normal -6.032732e-01 7.975346e-01 0.000000e+00
    outer loop
      vertex   -1.106564e+01 1.162896e+00 9.765625e-01
      vertex   -1.106564e+01 1.162896e+00 1.125000e+00
      vertex   -1.093378e+01 1.262638e+00 9.765625e-01
    endloop
  endfacet
  facet normal -6.032732e-01 7.975346e-01 0.000000e+00
    outer loop
      vertex   -1.093378e+01 1.262638e+00 9.765625e-01
      vertex   -1.106564e+01 1.162896e+00 1.125000e+00
      vertex   -1.093378e+01 1.262638e+00 1.125000e+00
    endloop
  endfacet
  facet normal -6.796091e-01 7.335745e-01 0.000000e+00
    outer loop
      vertex   -1.093378e+01 1.262638e+00 9.765625e-01
      vertex   -1.093378e+01 1.262638e+00 1.125000e+00
      vertex   -1.081250e+01 1.375000e+00 9.765625e-01
    endloop
  endfacet
  facet normal -6.796091e-01 7.335745e-01 0.000000e+00
    outer loop
      vertex   -1.081250e+01 1.375000e+00 9.765625e-01
      vertex   -1.093378e+01 1.262638e+00 1.125000e+00
      vertex   -1.081250e+01 1.375000e+00 1.125000e+00
    endloop
  endfacet
  facet normal 0.000000e+00 0.000000e+00 1.000000e+00
    outer loop
      vertex   -1.081250e+01 1.375000e+00 9.765625e-01
      vertex   -1.318750e+01 1.375000e+00 9.765625e-01
      vertex   -1.093378e+01 1.262638e+00 9.765625e-01
    endloop
  endfacet
  facet normal 0.000000e+00 0.000000e+00 1.000000e+00
    outer loop
      vertex   -1.093378e+01 1.262638e+00 9.765625e-01
      vertex   -1.318750e+01 1.375000e+00 9.765625e-01
      vertex   -1.306622e+01 1.262638e+00 9.765625e-01
    endloop
  endfacet
  facet normal 0.000000e+00 0.000000e+00 1.000000e+00
    outer loop
      vertex   -1.093378e+01 1.262638e+00 9.765625e-01
      vertex   -1.306622e+01 1.262638e+00 9.765625e-01
      vertex   -1.106564e+01 1.162896e+00 9.765625e-01
    endloop
  endfacet
  facet normal 0.000000e+00 0.000000e+00 1.000000e+00
    outer loop
      vertex   -1.106564e+01 1.162896e+00 9.765625e-01
      vertex   -1.306622e+01 1.262638e+00 9.765625e-01
      vertex   -1.293436e+01 1.162896e+00 9.765625e-01
    endloop
  endfacet
  facet normal 0.000000e+00 0.000000e+00 1.000000e+00
    outer loop
      vertex   -1.106564e+01 1.162896e+00 9.765625e-01
      vertex   -1.293436e+01 1.162896e+00 9.765625e-01
      vertex   -1.120677e+01 1.076765e+00 9.765625e-01
    endloop
  endfacet
  facet normal 0.000000e+00 0.000000e+00 1.000000e+00
    outer loop
      vertex   -1.120677e+01 1.076765e+00 9.765625e-01
      vertex   -1.293436e+01 1.162896e+00 9.765625e-01
      vertex   -1.279323e+01 1.076765e+00 9.765625e-01
    endloop
  endfacet
  facet normal 0.000000e+00 0.000000e+00 1.000000e+00
    outer loop
      vertex   -1.120677e+01 1.076765e+00 9.765625e-01
      vertex   -1.279323e+01 1.076765e+00 9.765625e-01
      vertex   -1.135576e+01 1.005098e+00 9.765625e-01
    endloop
  endfacet
  facet normal 0.000000e+00 0.000000e+00 1.000000e+00
    outer loop
      vertex   -1.135576e+01 1.005098e+00 9.765625e-01
      vertex   -1.279323e+01 1.076765e+00 9.765625e-01
      vertex   -1.264424e+01 1.005098e+00 9.765625e-01
    endloop
  endfacet
  facet normal 0.000000e+00 0.000000e+00 1.000000e+00
    outer loop
      vertex   -1.135576e+01 1.005098e+00 9.765625e-01
      vertex   -1.264424e+01 1.005098e+00 9.765625e-01
      vertex   -1.151115e+01 9.486057e-01 9.765625e-01
    endloop
  endfacet
  facet normal 0.000000e+00 0.000000e+00 1.000000e+00
    outer loop
      vertex   -1.151115e+01 9.486057e-01 9.765625e-01
      vertex   -1.264424e+01 1.005098e+00 9.765625e-01
      vertex   -1.248885e+01 9.486057e-01 9.765625e-01
    endloop
  endfacet
  facet normal 0.000000e+00 0.000000e+00 1.000000e+00
    outer loop
      vertex   -1.151115e+01 9.486057e-01 9.765625e-01
      vertex   -1.248885e+01 9.486057e-01 9.765625e-01
      vertex   -1.167138e+01 9.078494e-01 9.765625e-01
    endloop
  endfacet
  facet normal 0.000000e+00 0.000000e+00 1.000000e+00
    outer loop
      vertex   -1.167138e+01 9.078494e-01 9.765625e-01
      vertex   -1.248885e+01 9.486057e-01 9.765625e-01
      vertex   -1.232862e+01 9.078494e-01 9.765625e-01
    endloop
  endfacet
  facet normal 0.000000e+00 0.000000e+00 1.000000e+00
    outer loop
      vertex   -1.167138e+01 9.078494e-01 9.765625e-01
      vertex   -1.232862e+01 9.078494e-01 9.765625e-01
      vertex   -1.183487e+01 8.832328e-01 9.765625e-01
    endloop
  endfacet
  facet normal 0.000000e+00 0.000000e+00 1.000000e+00
    outer loop
      vertex   -1.183487e+01 8.832328e-01 9.765625e-01
      vertex   -1.232862e+01 9.078494e-01 9.765625e-01
      vertex   -1.216513e+01 8.832328e-01 9.765625e-01
    endloop
  endfacet
  facet normal 0.000000e+00 0.000000e+00 1.000000e+00
    outer loop
      vertex   -1.183487e+01 8.832328e-01 9.765625e-01
      vertex   -1.216513e+01 8.832328e-01 9.765625e-01
      vertex   -1.200000e+01 8.750000e-01 9.765625e-01
    endloop
  endfacet
  facet normal 0.000000e+00 0.000000e+00 -1.000000e+00
    outer loop
      vertex   -1.318750e+01 1.375000e+00 1.125000e+00
      vertex   -1.081250e+01 1.375000e+00 1.125000e+00
      vertex   -1.306622e+01 1.262638e+00 1.125000e+00
    endloop
  endfacet
  facet normal 0.000000e+00 0.000000e+00 -1.000000e+00
    outer loop
      vertex   -1.306622e+01 1.262638e+00 1.125000e+00
      vertex   -1.081250e+01 1.375000e+00 1.125000e+00
      vertex   -1.093378e+01 1.262638e+00 1.125000e+00
    endloop
  endfacet
  facet normal 0.000000e+00 0.000000e+00 -1.000000e+00
    outer loop
      vertex   -1.306622e+01 1.262638e+00 1.125000e+00
      vertex   -1.093378e+01 1.262638e+00 1.125000e+00
      vertex   -1.293436e+01 1.162896e+00 1.125000e+00
    endloop
  endfacet
  facet normal 0.000000e+00 0.000000e+00 -1.000000e+00
    outer loop
      vertex   -1.293436e+01 1.162896e+00 1.125000e+00
      vertex   -1.093378e+01 1.262638e+00 1.125000e+00
      vertex   -1.106564e+01 1.162896e+00 1.125000e+00
    endloop
  endfacet
  facet normal 0.000000e+00 0.000000e+00 -1.000000e+00
    outer loop
      vertex   -1.293436e+01 1.162896e+00 1.125000e+00
      vertex   -1.106564e+01 1.162896e+00 1.125000e+00
      vertex   -1.279323e+01 1.076765e+00 1.125000e+00
    endloop
  endfacet
  facet normal 0.000000e+00 0.000000e+00 -1.000000e+00
    outer loop
      vertex   -1.279323e+01 1.076765e+00 1.125000e+00
      vertex   -1.106564e+01 1.162896e+00 1.125000e+00
      vertex   -1.120677e+01 1.076765e+00 1.125000e+00
    endloop
  endfacet
  facet normal 0.000000e+00 0.000000e+00 -1.000000e+00
    outer loop
      vertex   -1.279323e+01 1.076765e+00 1.125000e+00
      vertex   -1.120677e+01 1.076765e+00 1.125000e+00
      vertex   -1.264424e+01 1.005098e+00 1.125000e+00
    endloop
  endfacet
  facet normal 0.000000e+00 0.000000e+00 -1.000000e+00
    outer loop
      vertex   -1.264424e+01 1.005098e+00 1.125000e+00
      vertex   -1.120677e+01 1.076765e+00 1.125000e+00
      vertex   -1.135576e+01 1.005098e+00 1.125000e+00
    endloop
  endfacet
  facet normal 0.000000e+00 0.000000e+00 -1.000000e+00
    outer loop
      vertex   -1.264424e+01 1.005098e+00 1.125000e+00
      vertex   -1.135576e+01 1.005098e+00 1.125000e+00
      vertex   -1.248885e+01 9.486057e-01 1.125000e+00
    endloop
  endfacet
  facet normal 0.000000e+00 0.000000e+00 -1.000000e+00
    outer loop
      vertex   -1.248885e+01 9.486057e-01 1.125000e+00
      vertex   -1.135576e+01 1.005098e+00 1.125000e+00
      vertex   -1.151115e+01 9.486057e-01 1.125000e+00
    endloop
  endfacet
  facet normal 0.000000e+00 0.000000e+00 -1.000000e+00
    outer loop
      vertex   -1.248885e+01 9.486057e-01 1.125000e+00
      vertex   -1.151115e+01 9.486057e-01 1.125000e+00
      vertex   -1.232862e+01 9.078494e-01 1.125000e+00
    endloop
  endfacet
  facet normal 0.000000e+00 0.000000e+00 -1.000000e+00
    outer loop
      vertex   -1.232862e+01 9.078494e-01 1.125000e+00
      vertex   -1.151115e+01 9.486057e-01 1.125000e+00
      vertex   -1.167138e+01 9.078494e-01 1.125000e+00
    endloop
  endfacet
  facet normal 0.000000e+00 0.000000e+00 -1.000000e+00
    outer loop
      vertex   -1.232862e+01 9.078494e-01 1.125000e+00
      vertex   -1.167138e+01 9.078494e-01 1.125000e+00
      vertex   -1.216513e+01 8.832328e-01 1.125000e+00
    endloop
  endfacet
  facet normal 0.000000e+00 0.000000e+00 -1.000000e+00
    outer loop
      vertex   -1.216513e+01 8.832328e-01 1.125000e+00
      vertex   -1.167138e+01 9.078494e-01 1.125000e+00
      vertex   -1.183487e+01 8.832328e-01 1.125000e+00
    endloop
  endfacet
  facet normal 0.000000e+00 0.000000e+00 -1.000000e+00
    outer loop
      vertex   -1.216513e+01 8.832328e-01 1.125000e+00
      vertex   -1.183487e+01 8.832328e-01 1.125000e+00
      vertex   -1.200000e+01 8.750000e-01 1.125000e+00
    endloop
  endfacet
  facet normal 6.888798e-15 -1.000000e+00 -1.973730e-16
    outer loop
      vertex   -2.050000e+01 -1.125000e+00 2.250000e+00
      vertex   -2.050000e+01 -1.125000e+00 1.125000e+00
      vertex   2.050000e+01 -1.125000e+00 2.250000e+00
    endloop
  endfacet
  facet normal 6.883383e-15 -1.000000e+00 0.000000e+00
    outer loop
      vertex   2.050000e+01 -1.125000e+00 2.250000e+00
      vertex   -2.050000e+01 -1.125000e+00 1.125000e+00
      vertex   2.050000e+01 -1.125000e+00 1.125000e+00
    endloop
  endfacet
  facet normal -0.000000e+00 0.000000e+00 1.000000e+00
    outer loop
      vertex   -2.050000e+01 -1.125000e+00 1.125000e+00
      vertex   -2.050000e+01 -1.625000e+00 1.125000e+00
      vertex   2.050000e+01 -1.125000e+00 1.125000e+00
    endloop
  endfacet
  facet normal 0.000000e+00 0.000000e+00 1.000000e+00
    outer loop
      vertex   2.050000e+01 -1.125000e+00 1.125000e+00
      vertex   -2.050000e+01 -1.625000e+00 1.125000e+00
      vertex   2.050000e+01 -1.625000e+00 1.125000e+00
    endloop
  endfacet
  facet normal 0.000000e+00 0.000000e+00 -1.000000e+00
    outer loop
      vertex   -2.050000e+01 8.750000e-01 7.500000e-01
      vertex   -2.050000e+01 1.375000e+00 7.500000e-01
      vertex   2.050000e+01 8.750000e-01 7.500000e-01
    endloop
  endfacet
  facet normal 0.000000e+00 0.000000e+00 -1.000000e+00
    outer loop
      vertex   2.050000e+01 8.750000e-01 7.500000e-01
      vertex   -2.050000e+01 1.375000e+00 7.500000e-01
      vertex   2.050000e+01 1.375000e+00 7.500000e-01
    endloop
  endfacet
  facet normal -6.886091e-15 1.000000e+00 0.000000e+00
    outer loop
      vertex   -2.050000e+01 8.750000e-01 0.000000e+00
      vertex   -2.050000e+01 8.750000e-01 7.500000e-01
      vertex   2.050000e+01 8.750000e-01 0.000000e+00
    endloop
  endfacet
  facet normal -6.886091e-15 1.000000e+00 0.000000e+00
    outer loop
      vertex   2.050000e+01 8.750000e-01 0.000000e+00
      vertex   -2.050000e+01 8.750000e-01 7.500000e-01
      vertex   2.050000e+01 8.750000e-01 7.500000e-01
    endloop
  endfacet
  facet normal 0.000000e+00 0.000000e+00 -1.000000e+00
    outer loop
      vertex   -2.037500e+01 1.375000e+00 1.750000e+00
      vertex   -2.037500e+01 1.625000e+00 1.750000e+00
      vertex   2.037500e+01 1.375000e+00 1.750000e+00
    endloop
  endfacet
  facet normal 0.000000e+00 0.000000e+00 -1.000000e+00
    outer loop
      vertex   2.037500e+01 1.375000e+00 1.750000e+00
      vertex   -2.037500e+01 1.625000e+00 1.750000e+00
      vertex   2.037500e+01 1.625000e+00 1.750000e+00
    endloop
  endfacet
  facet normal -7.198920e-15 1.000000e+00 3.547040e-13
    outer loop
      vertex   1.081250e+01 1.375000e+00 9.765625e-01
      vertex   1.318750e+01 1.375000e+00 9.765625e-01
      vertex   2.050000e+01 1.375000e+00 7.500000e-01
    endloop
  endfacet
  facet normal -1.818868e-14 1.000000e+00 0.000000e+00
    outer loop
      vertex   2.050000e+01 1.375000e+00 7.500000e-01
      vertex   1.318750e+01 1.375000e+00 9.765625e-01
      vertex   1.318750e+01 1.375000e+00 1.125000e+00
    endloop
  endfacet
  facet normal -2.566358e-14 1.000000e+00 -1.457606e-13
    outer loop
      vertex   2.050000e+01 1.375000e+00 7.500000e-01
      vertex   1.318750e+01 1.375000e+00 1.125000e+00
      vertex   2.037500e+01 1.375000e+00 1.750000e+00
    endloop
  endfacet
  facet normal -7.198920e-15 1.000000e+00 -3.581042e-13
    outer loop
      vertex   2.037500e+01 1.375000e+00 1.750000e+00
      vertex   1.318750e+01 1.375000e+00 1.125000e+00
      vertex   1.081250e+01 1.375000e+00 1.125000e+00
    endloop
  endfacet
  facet normal 1.776357e-15 1.000000e+00 -4.954259e-13
    outer loop
      vertex   2.037500e+01 1.375000e+00 1.750000e+00
      vertex   1.081250e+01 1.375000e+00 1.125000e+00
      vertex   1.187500e+00 1.375000e+00 1.125000e+00
    endloop
  endfacet
  facet normal 1.776357e-15 1.000000e+00 0.000000e+00
    outer loop
      vertex   1.187500e+00 1.375000e+00 1.125000e+00
      vertex   1.081250e+01 1.375000e+00 1.125000e+00
      vertex   1.081250e+01 1.375000e+00 9.765625e-01
    endloop
  endfacet
  facet normal 1.776357e-15 1.000000e+00 0.000000e+00
    outer loop
      vertex   1.187500e+00 1.375000e+00 1.125000e+00
      vertex   1.081250e+01 1.375000e+00 9.765625e-01
      vertex   1.187500e+00 1.375000e+00 9.765625e-01
    endloop
  endfacet
  facet normal 1.776357e-15 1.000000e+00 7.384744e-13
    outer loop
      vertex   1.187500e+00 1.375000e+00 9.765625e-01
      vertex   1.081250e+01 1.375000e+00 9.765625e-01
      vertex   2.050000e+01 1.375000e+00 7.500000e-01
    endloop
  endfacet
  facet normal -6.918442e-15 1.000000e+00 -2.682267e-15
    outer loop
      vertex   1.187500e+00 1.375000e+00 9.765625e-01
      vertex   2.050000e+01 1.375000e+00 7.500000e-01
      vertex   -1.187500e+00 1.375000e+00 9.765625e-01
    endloop
  endfacet
  facet normal -6.888798e-15 1.000000e+00 1.553752e-16
    outer loop
      vertex   -1.187500e+00 1.375000e+00 9.765625e-01
      vertex   2.050000e+01 1.375000e+00 7.500000e-01
      vertex   -2.050000e+01 1.375000e+00 7.500000e-01
    endloop
  endfacet
  facet normal 1.707148e-15 1.000000e+00 -7.325750e-13
    outer loop
      vertex   -1.187500e+00 1.375000e+00 9.765625e-01
      vertex   -2.050000e+01 1.375000e+00 7.500000e-01
      vertex   -1.081250e+01 1.375000e+00 9.765625e-01
    endloop
  endfacet
  facet normal -6.918442e-15 1.000000e+00 -3.637566e-13
    outer loop
      vertex   -1.081250e+01 1.375000e+00 9.765625e-01
      vertex   -2.050000e+01 1.375000e+00 7.500000e-01
      vertex   -1.318750e+01 1.375000e+00 9.765625e-01
    endloop
  endfacet
  facet normal -1.818868e-14 1.000000e+00 0.000000e+00
    outer loop
      vertex   -1.318750e+01 1.375000e+00 9.765625e-01
      vertex   -2.050000e+01 1.375000e+00 7.500000e-01
      vertex   -1.318750e+01 1.375000e+00 1.125000e+00
    endloop
  endfacet
  facet normal 3.629116e-15 1.000000e+00 -4.254470e-13
    outer loop
      vertex   -1.318750e+01 1.375000e+00 1.125000e+00
      vertex   -2.050000e+01 1.375000e+00 7.500000e-01
      vertex   -2.037500e+01 1.375000e+00 1.750000e+00
    endloop
  endfacet
  facet normal -6.918442e-15 1.000000e+00 -5.467439e-13
    outer loop
      vertex   -1.318750e+01 1.375000e+00 1.125000e+00
      vertex   -2.037500e+01 1.375000e+00 1.750000e+00
      vertex   -1.081250e+01 1.375000e+00 1.125000e+00
    endloop
  endfacet
  facet normal 1.707148e-15 1.000000e+00 -4.147724e-13
    outer loop
      vertex   -1.081250e+01 1.375000e+00 1.125000e+00
      vertex   -2.037500e+01 1.375000e+00 1.750000e+00
      vertex   -1.187500e+00 1.375000e+00 1.125000e+00
    endloop
  endfacet
  facet normal 1.707148e-15 1.000000e+00 0.000000e+00
    outer loop
      vertex   -1.081250e+01 1.375000e+00 1.125000e+00
      vertex   -1.187500e+00 1.375000e+00 1.125000e+00
      vertex   -1.187500e+00 1.375000e+00 9.765625e-01
    endloop
  endfacet
  facet normal -6.918442e-15 1.000000e+00 -2.284956e-13
    outer loop
      vertex   1.187500e+00 1.375000e+00 1.125000e+00
      vertex   -1.187500e+00 1.375000e+00 1.125000e+00
      vertex   2.037500e+01 1.375000e+00 1.750000e+00
    endloop
  endfacet
  facet normal 0.000000e+00 1.000000e+00 -4.671818e-13
    outer loop
      vertex   2.037500e+01 1.375000e+00 1.750000e+00
      vertex   -1.187500e+00 1.375000e+00 1.125000e+00
      vertex   -2.037500e+01 1.375000e+00 1.750000e+00
    endloop
  endfacet
  facet normal 1.707148e-15 1.000000e+00 -0.000000e+00
    outer loop
      vertex   -1.081250e+01 1.375000e+00 9.765625e-01
      vertex   -1.081250e+01 1.375000e+00 1.125000e+00
      vertex   -1.187500e+00 1.375000e+00 9.765625e-01
    endloop
  endfacet
  facet normal -1.133316e-12 1.000000e+00 -2.833289e-13
    outer loop
      vertex   -2.050000e+01 1.375000e+00 7.500000e-01
      vertex   -2.050000e+01 1.375000e+00 2.250000e+00
      vertex   -2.037500e+01 1.375000e+00 1.750000e+00
    endloop
  endfacet
  facet normal 0.000000e+00 1.000000e+00 -0.000000e+00
    outer loop
      vertex   -2.037500e+01 1.375000e+00 1.750000e+00
      vertex   -2.050000e+01 1.375000e+00 2.250000e+00
      vertex   -2.037500e+01 1.375000e+00 2.250000e+00
    endloop
  endfacet
  facet normal -0.000000e+00 1.000000e+00 0.000000e+00
    outer loop
      vertex   2.037500e+01 1.375000e+00 2.250000e+00
      vertex   2.050000e+01 1.375000e+00 2.250000e+00
      vertex   2.037500e+01 1.375000e+00 1.750000e+00
    endloop
  endfacet
  facet normal 3.801404e-13 1.000000e+00 -9.503509e-14
    outer loop
      vertex   2.037500e+01 1.375000e+00 1.750000e+00
      vertex   2.050000e+01 1.375000e+00 2.250000e+00
      vertex   2.050000e+01 1.375000e+00 7.500000e-01
    endloop
  endfacet
  facet normal -0.000000e+00 0.000000e+00 1.000000e+00
    outer loop
      vertex   -2.050000e+01 1.375000e+00 2.250000e+00
      vertex   -2.050000e+01 -1.125000e+00 2.250000e+00
      vertex   -2.037500e+01 1.375000e+00 2.250000e+00
    endloop
  endfacet
  facet normal 0.000000e+00 0.000000e+00 1.000000e+00
    outer loop
      vertex   -2.037500e+01 1.375000e+00 2.250000e+00
      vertex   -2.050000e+01 -1.125000e+00 2.250000e+00
      vertex   2.050000e+01 -1.125000e+00 2.250000e+00
    endloop
  endfacet
  facet normal -0.000000e+00 0.000000e+00 1.000000e+00
    outer loop
      vertex   -2.037500e+01 1.375000e+00 2.250000e+00
      vertex   2.050000e+01 -1.125000e+00 2.250000e+00
      vertex   2.037500e+01 1.375000e+00 2.250000e+00
    endloop
  endfacet
  facet normal -0.000000e+00 0.000000e+00 1.000000e+00
    outer loop
      vertex   2.037500e+01 1.375000e+00 2.250000e+00
      vertex   2.050000e+01 -1.125000e+00 2.250000e+00
      vertex   2.050000e+01 1.375000e+00 2.250000e+00
    endloop
  endfacet
  facet normal 0.000000e+00 0.000000e+00 1.000000e+00
    outer loop
      vertex   2.037500e+01 1.625000e+00 2.250000e+00
      vertex   -2.037500e+01 1.625000e+00 2.250000e+00
      vertex   2.037500e+01 1.375000e+00 2.250000e+00
    endloop
  endfacet
  facet normal 0.000000e+00 0.000000e+00 1.000000e+00
    outer loop
      vertex   2.037500e+01 1.375000e+00 2.250000e+00
      vertex   -2.037500e+01 1.625000e+00 2.250000e+00
      vertex   -2.037500e+01 1.375000e+00 2.250000e+00
    endloop
  endfacet
  facet normal -0.000000e+00 1.000000e+00 0.000000e+00
    outer loop
      vertex   -2.037500e+01 1.625000e+00 2.250000e+00
      vertex   2.037500e+01 1.625000e+00 2.250000e+00
      vertex   -2.037500e+01 1.625000e+00 1.750000e+00
    endloop
  endfacet
  facet normal 0.000000e+00 1.000000e+00 0.000000e+00
    outer loop
      vertex   -2.037500e+01 1.625000e+00 1.750000e+00
      vertex   2.037500e+01 1.625000e+00 2.250000e+00
      vertex   2.037500e+01 1.625000e+00 1.750000e+00
    endloop
  endfacet
  facet normal 1.000000e+00 0.000000e+00 -0.000000e+00
    outer loop
      vertex   2.050000e+01 3.750000e-01 3.750000e-01
      vertex   2.050000e+01 8.750000e-01 7.500000e-01
      vertex   2.050000e+01 3.750000e-01 1.125000e+00
    endloop
  endfacet
  facet normal 1.000000e+00 0.000000e+00 0.000000e+00
    outer loop
      vertex   2.050000e+01 3.750000e-01 1.125000e+00
      vertex   2.050000e+01 8.750000e-01 7.500000e-01
      vertex   2.050000e+01 1.375000e+00 7.500000e-01
    endloop
  endfacet
  facet normal 1.000000e+00 5.329071e-15 1.421085e-14
    outer loop
      vertex   2.050000e+01 3.750000e-01 1.125000e+00
      vertex   2.050000e+01 1.375000e+00 7.500000e-01
      vertex   2.050000e+01 1.375000e+00 2.250000e+00
    endloop
  endfacet
  facet normal 1.000000e+00 0.000000e+00 0.000000e+00
    outer loop
      vertex   2.050000e+01 8.750000e-01 7.500000e-01
      vertex   2.050000e+01 3.750000e-01 3.750000e-01
      vertex   2.050000e+01 8.750000e-01 0.000000e+00
    endloop
  endfacet
  facet normal 1.000000e+00 1.776357e-14 2.368476e-14
    outer loop
      vertex   2.050000e+01 8.750000e-01 0.000000e+00
      vertex   2.050000e+01 3.750000e-01 3.750000e-01
      vertex   2.050000e+01 -6.250000e-01 3.750000e-01
    endloop
  endfacet
  facet normal 1.000000e+00 1.421085e-14 9.473903e-15
    outer loop
      vertex   2.050000e+01 8.750000e-01 0.000000e+00
      vertex   2.050000e+01 -6.250000e-01 3.750000e-01
      vertex   2.050000e+01 -1.625000e+00 0.000000e+00
    endloop
  endfacet
  facet normal 1.000000e+00 1.278977e-14 1.326346e-14
    outer loop
      vertex   2.050000e+01 -1.625000e+00 0.000000e+00
      vertex   2.050000e+01 -6.250000e-01 3.750000e-01
      vertex   2.050000e+01 -1.125000e+00 1.125000e+00
    endloop
  endfacet
  facet normal 1.000000e+00 7.105427e-15 1.578984e-14
    outer loop
      vertex   2.050000e+01 -1.625000e+00 0.000000e+00
      vertex   2.050000e+01 -1.125000e+00 1.125000e+00
      vertex   2.050000e+01 -1.625000e+00 1.125000e+00
    endloop
  endfacet
  facet normal 1.000000e+00 -7.105427e-15 0.000000e+00
    outer loop
      vertex   2.050000e+01 -6.250000e-01 3.750000e-01
      vertex   2.050000e+01 -6.250000e-01 1.125000e+00
      vertex   2.050000e+01 -1.125000e+00 1.125000e+00
    endloop
  endfacet
  facet normal 1.000000e+00 -7.105427e-15 0.000000e+00
    outer loop
      vertex   2.050000e+01 -1.125000e+00 1.125000e+00
      vertex   2.050000e+01 -6.250000e-01 1.125000e+00
      vertex   2.050000e+01 -1.125000e+00 2.250000e+00
    endloop
  endfacet
  facet normal 1.000000e+00 1.776357e-14 1.105289e-14
    outer loop
      vertex   2.050000e+01 -1.125000e+00 2.250000e+00
      vertex   2.050000e+01 -6.250000e-01 1.125000e+00
      vertex   2.050000e+01 3.750000e-01 1.125000e+00
    endloop
  endfacet
  facet normal 1.000000e+00 1.421085e-14 6.315935e-15
    outer loop
      vertex   2.050000e+01 -1.125000e+00 2.250000e+00
      vertex   2.050000e+01 3.750000e-01 1.125000e+00
      vertex   2.050000e+01 1.375000e+00 2.250000e+00
    endloop
  endfacet
  facet normal 6.883383e-15 -1.000000e+00 -1.259240e-13
    outer loop
      vertex   2.050000e+01 -1.625000e+00 1.125000e+00
      vertex   -2.050000e+01 -1.625000e+00 1.125000e+00
      vertex   2.050000e+01 -1.625000e+00 0.000000e+00
    endloop
  endfacet
  facet normal 2.707861e-17 -1.000000e+00 -3.757982e-13
    outer loop
      vertex   2.050000e+01 -1.625000e+00 0.000000e+00
      vertex   -2.050000e+01 -1.625000e+00 1.125000e+00
      vertex   -2.050000e+01 -1.625000e+00 0.000000e+00
    endloop
  endfacet
  facet normal 0.000000e+00 0.000000e+00 -1.000000e+00
    outer loop
      vertex   -2.050000e+01 8.750000e-01 0.000000e+00
      vertex   2.050000e+01 8.750000e-01 0.000000e+00
      vertex   -2.050000e+01 -1.625000e+00 0.000000e+00
    endloop
  endfacet
  facet normal 0.000000e+00 0.000000e+00 -1.000000e+00
    outer loop
      vertex   -2.050000e+01 -1.625000e+00 0.000000e+00
      vertex   2.050000e+01 8.750000e-01 0.000000e+00
      vertex   2.050000e+01 -1.625000e+00 0.000000e+00
    endloop
  endfacet
endsolid
