solid ASCII
  facet normal 7.071068e-01 0.000000e+00 -7.071068e-01
    outer loop
      vertex   2.043750e+01 -8.137500e+00 0.000000e+00
      vertex   2.043750e+01 7.987500e+00 0.000000e+00
      vertex   2.050000e+01 -8.200000e+00 6.250000e-02
    endloop
  endfacet
  facet normal 7.071068e-01 0.000000e+00 -7.071068e-01
    outer loop
      vertex   2.050000e+01 -8.200000e+00 6.250000e-02
      vertex   2.043750e+01 7.987500e+00 0.000000e+00
      vertex   2.050000e+01 8.050000e+00 6.250000e-02
    endloop
  endfacet
  facet normal 0.000000e+00 7.071068e-01 -7.071068e-01
    outer loop
      vertex   2.043750e+01 7.987500e+00 0.000000e+00
      vertex   -2.043750e+01 7.987500e+00 0.000000e+00
      vertex   2.050000e+01 8.050000e+00 6.250000e-02
    endloop
  endfacet
  facet normal 0.000000e+00 7.071068e-01 -7.071068e-01
    outer loop
      vertex   2.050000e+01 8.050000e+00 6.250000e-02
      vertex   -2.043750e+01 7.987500e+00 0.000000e+00
      vertex   -2.050000e+01 8.050000e+00 6.250000e-02
    endloop
  endfacet
  facet normal 3.063595e-17 -7.071068e-01 -7.071068e-01
    outer loop
      vertex   2.050000e+01 -8.200000e+00 6.250000e-02
      vertex   -2.050000e+01 -8.200000e+00 6.250000e-02
      vertex   2.043750e+01 -8.137500e+00 0.000000e+00
    endloop
  endfacet
  facet normal 3.072964e-17 -7.071068e-01 -7.071068e-01
    outer loop
      vertex   2.043750e+01 -8.137500e+00 0.000000e+00
      vertex   -2.050000e+01 -8.200000e+00 6.250000e-02
      vertex   -2.043750e+01 -8.137500e+00 0.000000e+00
    endloop
  endfacet
  facet normal -7.071068e-01 0.000000e+00 -7.071068e-01
    outer loop
      vertex   -2.043750e+01 -8.137500e+00 0.000000e+00
      vertex   -2.050000e+01 -8.200000e+00 6.250000e-02
      vertex   -2.043750e+01 7.987500e+00 0.000000e+00
    endloop
  endfacet
  facet normal -7.071068e-01 3.088855e-16 -7.071068e-01
    outer loop
      vertex   -2.043750e+01 7.987500e+00 0.000000e+00
      vertex   -2.050000e+01 -8.200000e+00 6.250000e-02
      vertex   -2.050000e+01 8.050000e+00 6.250000e-02
    endloop
  endfacet
  facet normal 4.332578e-17 -1.000000e+00 0.000000e+00
    outer loop
      vertex   -2.050000e+01 -8.200000e+00 6.250000e-02
      vertex   2.050000e+01 -8.200000e+00 6.250000e-02
      vertex   -2.050000e+01 -8.200000e+00 6.875000e-01
    endloop
  endfacet
  facet normal 4.332578e-17 -1.000000e+00 0.000000e+00
    outer loop
      vertex   -2.050000e+01 -8.200000e+00 6.875000e-01
      vertex   2.050000e+01 -8.200000e+00 6.250000e-02
      vertex   2.050000e+01 -8.200000e+00 6.875000e-01
    endloop
  endfacet
  facet normal 1.000000e+00 0.000000e+00 -5.684342e-14
    outer loop
      vertex   2.050000e+01 8.050000e+00 6.250000e-02
      vertex   2.050000e+01 8.050000e+00 1.250000e-01
      vertex   2.050000e+01 -8.200000e+00 6.250000e-02
    endloop
  endfacet
  facet normal 1.000000e+00 -2.155347e-16 -8.043866e-16
    outer loop
      vertex   2.050000e+01 -8.200000e+00 6.250000e-02
      vertex   2.050000e+01 8.050000e+00 1.250000e-01
      vertex   2.050000e+01 7.900000e+00 1.651924e-01
    endloop
  endfacet
  facet normal 1.000000e+00 -2.206654e-16 0.000000e+00
    outer loop
      vertex   2.050000e+01 -8.200000e+00 6.250000e-02
      vertex   2.050000e+01 7.900000e+00 1.651924e-01
      vertex   2.050000e+01 7.900000e+00 3.348076e-01
    endloop
  endfacet
  facet normal 1.000000e+00 -2.206654e-16 0.000000e+00
    outer loop
      vertex   2.050000e+01 -8.200000e+00 6.250000e-02
      vertex   2.050000e+01 7.900000e+00 3.348076e-01
      vertex   2.050000e+01 -8.200000e+00 6.875000e-01
    endloop
  endfacet
  facet normal 1.000000e+00 -2.039883e-16 7.612945e-16
    outer loop
      vertex   2.050000e+01 -8.200000e+00 6.875000e-01
      vertex   2.050000e+01 7.900000e+00 3.348076e-01
      vertex   2.050000e+01 8.200000e+00 4.151924e-01
    endloop
  endfacet
  facet normal 1.000000e+00 -2.166289e-16 3.629959e-29
    outer loop
      vertex   2.050000e+01 -8.200000e+00 6.875000e-01
      vertex   2.050000e+01 8.200000e+00 4.151924e-01
      vertex   2.050000e+01 8.200000e+00 5.848076e-01
    endloop
  endfacet
  facet normal 1.000000e+00 -2.218124e-16 -8.278153e-16
    outer loop
      vertex   2.050000e+01 8.200000e+00 5.848076e-01
      vertex   2.050000e+01 8.050000e+00 6.250000e-01
      vertex   2.050000e+01 -8.200000e+00 6.875000e-01
    endloop
  endfacet
  facet normal 1.000000e+00 -3.883623e-31 5.684342e-14
    outer loop
      vertex   2.050000e+01 -8.200000e+00 6.875000e-01
      vertex   2.050000e+01 8.050000e+00 6.250000e-01
      vertex   2.050000e+01 8.050000e+00 6.875000e-01
    endloop
  endfacet
  facet normal -0.000000e+00 0.000000e+00 -1.000000e+00
    outer loop
      vertex   2.043750e+01 -8.137500e+00 0.000000e+00
      vertex   -2.043750e+01 -8.137500e+00 0.000000e+00
      vertex   2.043750e+01 7.987500e+00 0.000000e+00
    endloop
  endfacet
  facet normal -0.000000e+00 0.000000e+00 -1.000000e+00
    outer loop
      vertex   2.043750e+01 7.987500e+00 0.000000e+00
      vertex   -2.043750e+01 -8.137500e+00 0.000000e+00
      vertex   -2.043750e+01 7.987500e+00 0.000000e+00
    endloop
  endfacet
  facet normal 7.071068e-01 1.557921e-16 7.071068e-01
    outer loop
      vertex   2.043750e+01 -8.137500e+00 7.500000e-01
      vertex   2.050000e+01 -8.200000e+00 6.875000e-01
      vertex   2.043750e+01 7.987500e+00 7.500000e-01
    endloop
  endfacet
  facet normal 7.071068e-01 -4.831054e-18 7.071068e-01
    outer loop
      vertex   2.043750e+01 7.987500e+00 7.500000e-01
      vertex   2.050000e+01 -8.200000e+00 6.875000e-01
      vertex   2.050000e+01 8.050000e+00 6.875000e-01
    endloop
  endfacet
  facet normal 3.072964e-17 -7.071068e-01 7.071068e-01
    outer loop
      vertex   2.043750e+01 -8.137500e+00 7.500000e-01
      vertex   -2.043750e+01 -8.137500e+00 7.500000e-01
      vertex   2.050000e+01 -8.200000e+00 6.875000e-01
    endloop
  endfacet
  facet normal 3.063595e-17 -7.071068e-01 7.071068e-01
    outer loop
      vertex   2.050000e+01 -8.200000e+00 6.875000e-01
      vertex   -2.043750e+01 -8.137500e+00 7.500000e-01
      vertex   -2.050000e+01 -8.200000e+00 6.875000e-01
    endloop
  endfacet
  facet normal -7.071068e-01 0.000000e+00 7.071068e-01
    outer loop
      vertex   -2.043750e+01 -8.137500e+00 7.500000e-01
      vertex   -2.043750e+01 7.987500e+00 7.500000e-01
      vertex   -2.050000e+01 -8.200000e+00 6.875000e-01
    endloop
  endfacet
  facet normal -7.071068e-01 3.091874e-16 7.071068e-01
    outer loop
      vertex   -2.050000e+01 -8.200000e+00 6.875000e-01
      vertex   -2.043750e+01 7.987500e+00 7.500000e-01
      vertex   -2.050000e+01 8.050000e+00 6.875000e-01
    endloop
  endfacet
  facet normal -1.914747e-18 7.071068e-01 7.071068e-01
    outer loop
      vertex   2.050000e+01 8.050000e+00 6.875000e-01
      vertex   -2.050000e+01 8.050000e+00 6.875000e-01
      vertex   2.043750e+01 7.987500e+00 7.500000e-01
    endloop
  endfacet
  facet normal 3.072964e-17 7.071068e-01 7.071068e-01
    outer loop
      vertex   2.043750e+01 7.987500e+00 7.500000e-01
      vertex   -2.050000e+01 8.050000e+00 6.875000e-01
      vertex   -2.043750e+01 7.987500e+00 7.500000e-01
    endloop
  endfacet
  facet normal 0.000000e+00 1.000000e+00 0.000000e+00
    outer loop
      vertex   2.050000e+01 8.050000e+00 6.875000e-01
      vertex   2.050000e+01 8.050000e+00 6.250000e-01
      vertex   -2.050000e+01 8.050000e+00 6.875000e-01
    endloop
  endfacet
  facet normal 0.000000e+00 1.000000e+00 0.000000e+00
    outer loop
      vertex   -2.050000e+01 8.050000e+00 6.875000e-01
      vertex   2.050000e+01 8.050000e+00 6.250000e-01
      vertex   -2.050000e+01 8.050000e+00 6.250000e-01
    endloop
  endfacet
  facet normal 0.000000e+00 0.000000e+00 1.000000e+00
    outer loop
      vertex   2.043750e+01 7.987500e+00 7.500000e-01
      vertex   -2.043750e+01 7.987500e+00 7.500000e-01
      vertex   2.043750e+01 -8.137500e+00 7.500000e-01
    endloop
  endfacet
  facet normal 0.000000e+00 0.000000e+00 1.000000e+00
    outer loop
      vertex   2.043750e+01 -8.137500e+00 7.500000e-01
      vertex   -2.043750e+01 7.987500e+00 7.500000e-01
      vertex   -2.043750e+01 -8.137500e+00 7.500000e-01
    endloop
  endfacet
  facet normal 0.000000e+00 2.588190e-01 -9.659258e-01
    outer loop
      vertex   2.050000e+01 8.200000e+00 4.151924e-01
      vertex   2.050000e+01 7.900000e+00 3.348076e-01
      vertex   -2.050000e+01 8.200000e+00 4.151924e-01
    endloop
  endfacet
  facet normal 0.000000e+00 2.588190e-01 -9.659258e-01
    outer loop
      vertex   -2.050000e+01 8.200000e+00 4.151924e-01
      vertex   2.050000e+01 7.900000e+00 3.348076e-01
      vertex   -2.050000e+01 7.900000e+00 3.348076e-01
    endloop
  endfacet
  facet normal 0.000000e+00 1.000000e+00 0.000000e+00
    outer loop
      vertex   2.050000e+01 7.900000e+00 3.348076e-01
      vertex   2.050000e+01 7.900000e+00 1.651924e-01
      vertex   -2.050000e+01 7.900000e+00 3.348076e-01
    endloop
  endfacet
  facet normal 0.000000e+00 1.000000e+00 0.000000e+00
    outer loop
      vertex   -2.050000e+01 7.900000e+00 3.348076e-01
      vertex   2.050000e+01 7.900000e+00 1.651924e-01
      vertex   -2.050000e+01 7.900000e+00 1.651924e-01
    endloop
  endfacet
  facet normal 0.000000e+00 2.588190e-01 9.659258e-01
    outer loop
      vertex   2.050000e+01 7.900000e+00 1.651924e-01
      vertex   2.050000e+01 8.050000e+00 1.250000e-01
      vertex   -2.050000e+01 7.900000e+00 1.651924e-01
    endloop
  endfacet
  facet normal 0.000000e+00 2.588190e-01 9.659258e-01
    outer loop
      vertex   -2.050000e+01 7.900000e+00 1.651924e-01
      vertex   2.050000e+01 8.050000e+00 1.250000e-01
      vertex   -2.050000e+01 8.050000e+00 1.250000e-01
    endloop
  endfacet
  facet normal 0.000000e+00 1.000000e+00 0.000000e+00
    outer loop
      vertex   -2.050000e+01 8.050000e+00 6.250000e-02
      vertex   -2.050000e+01 8.050000e+00 1.250000e-01
      vertex   2.050000e+01 8.050000e+00 6.250000e-02
    endloop
  endfacet
  facet normal 0.000000e+00 1.000000e+00 -0.000000e+00
    outer loop
      vertex   2.050000e+01 8.050000e+00 6.250000e-02
      vertex   -2.050000e+01 8.050000e+00 1.250000e-01
      vertex   2.050000e+01 8.050000e+00 1.250000e-01
    endloop
  endfacet
  facet normal 0.000000e+00 2.588190e-01 9.659258e-01
    outer loop
      vertex   2.050000e+01 8.050000e+00 6.250000e-01
      vertex   2.050000e+01 8.200000e+00 5.848076e-01
      vertex   -2.050000e+01 8.050000e+00 6.250000e-01
    endloop
  endfacet
  facet normal 0.000000e+00 2.588190e-01 9.659258e-01
    outer loop
      vertex   -2.050000e+01 8.050000e+00 6.250000e-01
      vertex   2.050000e+01 8.200000e+00 5.848076e-01
      vertex   -2.050000e+01 8.200000e+00 5.848076e-01
    endloop
  endfacet
  facet normal -1.000000e+00 4.372571e-16 0.000000e+00
    outer loop
      vertex   -2.050000e+01 8.050000e+00 6.250000e-02
      vertex   -2.050000e+01 -8.200000e+00 6.250000e-02
      vertex   -2.050000e+01 8.050000e+00 1.250000e-01
    endloop
  endfacet
  facet normal -1.000000e+00 4.310695e-16 1.608773e-15
    outer loop
      vertex   -2.050000e+01 8.050000e+00 1.250000e-01
      vertex   -2.050000e+01 -8.200000e+00 6.250000e-02
      vertex   -2.050000e+01 7.900000e+00 1.651924e-01
    endloop
  endfacet
  facet normal -1.000000e+00 4.413309e-16 0.000000e+00
    outer loop
      vertex   -2.050000e+01 7.900000e+00 1.651924e-01
      vertex   -2.050000e+01 -8.200000e+00 6.250000e-02
      vertex   -2.050000e+01 7.900000e+00 3.348076e-01
    endloop
  endfacet
  facet normal -1.000000e+00 4.413309e-16 0.000000e+00
    outer loop
      vertex   -2.050000e+01 7.900000e+00 3.348076e-01
      vertex   -2.050000e+01 -8.200000e+00 6.250000e-02
      vertex   -2.050000e+01 -8.200000e+00 6.875000e-01
    endloop
  endfacet
  facet normal -1.000000e+00 4.079765e-16 -1.522589e-15
    outer loop
      vertex   -2.050000e+01 7.900000e+00 3.348076e-01
      vertex   -2.050000e+01 -8.200000e+00 6.875000e-01
      vertex   -2.050000e+01 8.200000e+00 4.151924e-01
    endloop
  endfacet
  facet normal -1.000000e+00 4.332578e-16 -7.259917e-29
    outer loop
      vertex   -2.050000e+01 8.200000e+00 4.151924e-01
      vertex   -2.050000e+01 -8.200000e+00 6.875000e-01
      vertex   -2.050000e+01 8.200000e+00 5.848076e-01
    endloop
  endfacet
  facet normal -1.000000e+00 4.436249e-16 1.655631e-15
    outer loop
      vertex   -2.050000e+01 8.200000e+00 5.848076e-01
      vertex   -2.050000e+01 -8.200000e+00 6.875000e-01
      vertex   -2.050000e+01 8.050000e+00 6.250000e-01
    endloop
  endfacet
  facet normal -1.000000e+00 4.372571e-16 0.000000e+00
    outer loop
      vertex   -2.050000e+01 8.050000e+00 6.250000e-01
      vertex   -2.050000e+01 -8.200000e+00 6.875000e-01
      vertex   -2.050000e+01 8.050000e+00 6.875000e-01
    endloop
  endfacet
  facet normal 0.000000e+00 1.000000e+00 -1.675658e-13
    outer loop
      vertex   2.050000e+01 8.200000e+00 4.151924e-01
      vertex   -2.050000e+01 8.200000e+00 4.151924e-01
      vertex   2.050000e+01 8.200000e+00 5.848076e-01
    endloop
  endfacet
  facet normal 0.000000e+00 1.000000e+00 -1.675658e-13
    outer loop
      vertex   2.050000e+01 8.200000e+00 5.848076e-01
      vertex   -2.050000e+01 8.200000e+00 4.151924e-01
      vertex   -2.050000e+01 8.200000e+00 5.848076e-01
    endloop
  endfacet
endsolid
