solid ASCII
  facet normal -1.000000e+00 0.000000e+00 0.000000e+00
    outer loop
      vertex   8.750000e-01 8.750000e-01 2.800000e+01
      vertex   8.750000e-01 8.750000e-01 2.900000e+01
      vertex   8.750000e-01 1.375000e+00 2.800000e+01
    endloop
  endfacet
  facet normal -1.000000e+00 0.000000e+00 0.000000e+00
    outer loop
      vertex   8.750000e-01 1.375000e+00 2.800000e+01
      vertex   8.750000e-01 8.750000e-01 2.900000e+01
      vertex   8.750000e-01 1.375000e+00 2.900000e+01
    endloop
  endfacet
  facet normal -1.332268e-16 1.000000e+00 0.000000e+00
    outer loop
      vertex   1.375000e+00 1.250000e-01 2.900000e+01
      vertex   1.375000e+00 1.250000e-01 2.800000e+01
      vertex   1.250000e-01 1.250000e-01 2.900000e+01
    endloop
  endfacet
  facet normal -1.332268e-16 1.000000e+00 0.000000e+00
    outer loop
      vertex   1.250000e-01 1.250000e-01 2.900000e+01
      vertex   1.375000e+00 1.250000e-01 2.800000e+01
      vertex   1.250000e-01 1.250000e-01 2.800000e+01
    endloop
  endfacet
  facet normal -0.000000e+00 -0.000000e+00 -1.000000e+00
    outer loop
      vertex   1.375000e+00 8.750000e-01 2.900000e+01
      vertex   1.375000e+00 1.250000e-01 2.900000e+01
      vertex   8.750000e-01 8.750000e-01 2.900000e+01
    endloop
  endfacet
  facet normal 0.000000e+00 -0.000000e+00 -1.000000e+00
    outer loop
      vertex   8.750000e-01 8.750000e-01 2.900000e+01
      vertex   1.375000e+00 1.250000e-01 2.900000e+01
      vertex   1.250000e-01 1.250000e-01 2.900000e+01
    endloop
  endfacet
  facet normal -0.000000e+00 0.000000e+00 -1.000000e+00
    outer loop
      vertex   8.750000e-01 8.750000e-01 2.900000e+01
      vertex   1.250000e-01 1.250000e-01 2.900000e+01
      vertex   1.250000e-01 1.375000e+00 2.900000e+01
    endloop
  endfacet
  facet normal 0.000000e+00 0.000000e+00 -1.000000e+00
    outer loop
      vertex   1.250000e-01 1.375000e+00 2.900000e+01
      vertex   8.750000e-01 1.375000e+00 2.900000e+01
      vertex   8.750000e-01 8.750000e-01 2.900000e+01
    endloop
  endfacet
  facet normal 0.000000e+00 -1.000000e+00 0.000000e+00
    outer loop
      vertex   8.750000e-01 8.750000e-01 2.900000e+01
      vertex   8.750000e-01 8.750000e-01 2.800000e+01
      vertex   1.375000e+00 8.750000e-01 2.900000e+01
    endloop
  endfacet
  facet normal 0.000000e+00 -1.000000e+00 -0.000000e+00
    outer loop
      vertex   1.375000e+00 8.750000e-01 2.900000e+01
      vertex   8.750000e-01 8.750000e-01 2.800000e+01
      vertex   1.375000e+00 8.750000e-01 2.800000e+01
    endloop
  endfacet
  facet normal 0.000000e+00 0.000000e+00 1.000000e+00
    outer loop
      vertex   1.250000e-01 1.375000e+00 2.800000e+01
      vertex   1.250000e-01 1.250000e-01 2.800000e+01
      vertex   8.750000e-01 8.750000e-01 2.800000e+01
    endloop
  endfacet
  facet normal 0.000000e+00 0.000000e+00 1.000000e+00
    outer loop
      vertex   8.750000e-01 8.750000e-01 2.800000e+01
      vertex   1.250000e-01 1.250000e-01 2.800000e+01
      vertex   1.375000e+00 1.250000e-01 2.800000e+01
    endloop
  endfacet
  facet normal -0.000000e+00 0.000000e+00 1.000000e+00
    outer loop
      vertex   8.750000e-01 8.750000e-01 2.800000e+01
      vertex   1.375000e+00 1.250000e-01 2.800000e+01
      vertex   1.375000e+00 8.750000e-01 2.800000e+01
    endloop
  endfacet
  facet normal 0.000000e+00 -0.000000e+00 1.000000e+00
    outer loop
      vertex   8.750000e-01 8.750000e-01 2.800000e+01
      vertex   8.750000e-01 1.375000e+00 2.800000e+01
      vertex   1.250000e-01 1.375000e+00 2.800000e+01
    endloop
  endfacet
  facet normal 1.000000e+00 -4.218847e-16 0.000000e+00
    outer loop
      vertex   1.250000e-01 1.375000e+00 2.800000e+01
      vertex   1.250000e-01 1.375000e+00 2.900000e+01
      vertex   1.250000e-01 1.250000e-01 2.800000e+01
    endloop
  endfacet
  facet normal 1.000000e+00 -4.218847e-16 0.000000e+00
    outer loop
      vertex   1.250000e-01 1.250000e-01 2.800000e+01
      vertex   1.250000e-01 1.375000e+00 2.900000e+01
      vertex   1.250000e-01 1.250000e-01 2.900000e+01
    endloop
  endfacet
  facet normal 9.986464e-01 1.612684e-16 -5.201283e-02
    outer loop
      vertex   1.375000e+00 1.375000e+00 2.400000e+01
      vertex   1.375000e+00 -1.375000e+00 2.400000e+01
      vertex   1.250000e-01 1.250000e-01 0.000000e+00
    endloop
  endfacet
  facet normal 9.986464e-01 1.108720e-16 -5.201283e-02
    outer loop
      vertex   1.250000e-01 1.250000e-01 0.000000e+00
      vertex   1.375000e+00 -1.375000e+00 2.400000e+01
      vertex   1.250000e-01 -1.375000e+00 0.000000e+00
    endloop
  endfacet
  facet normal 0.000000e+00 9.986464e-01 -5.201283e-02
    outer loop
      vertex   -1.375000e+00 1.250000e-01 0.000000e+00
      vertex   -1.375000e+00 1.375000e+00 2.400000e+01
      vertex   1.250000e-01 1.250000e-01 0.000000e+00
    endloop
  endfacet
  facet normal 0.000000e+00 9.986464e-01 -5.201283e-02
    outer loop
      vertex   1.250000e-01 1.250000e-01 0.000000e+00
      vertex   -1.375000e+00 1.375000e+00 2.400000e+01
      vertex   1.375000e+00 1.375000e+00 2.400000e+01
    endloop
  endfacet
  facet normal 1.000000e+00 2.960595e-16 -1.480297e-16
    outer loop
      vertex   1.375000e+00 1.250000e-01 2.900000e+01
      vertex   1.375000e+00 8.750000e-01 2.900000e+01
      vertex   1.375000e+00 1.375000e+00 3.000000e+01
    endloop
  endfacet
  facet normal 1.000000e+00 0.000000e+00 0.000000e+00
    outer loop
      vertex   1.375000e+00 1.375000e+00 3.000000e+01
      vertex   1.375000e+00 8.750000e-01 2.900000e+01
      vertex   1.375000e+00 8.750000e-01 2.800000e+01
    endloop
  endfacet
  facet normal 1.000000e+00 0.000000e+00 0.000000e+00
    outer loop
      vertex   1.375000e+00 1.375000e+00 3.000000e+01
      vertex   1.375000e+00 8.750000e-01 2.800000e+01
      vertex   1.375000e+00 1.375000e+00 2.400000e+01
    endloop
  endfacet
  facet normal 1.000000e+00 2.960595e-16 3.700743e-17
    outer loop
      vertex   1.375000e+00 1.375000e+00 2.400000e+01
      vertex   1.375000e+00 8.750000e-01 2.800000e+01
      vertex   1.375000e+00 1.250000e-01 2.800000e+01
    endloop
  endfacet
  facet normal 1.000000e+00 1.614870e-16 -5.046468e-18
    outer loop
      vertex   1.375000e+00 1.375000e+00 2.400000e+01
      vertex   1.375000e+00 1.250000e-01 2.800000e+01
      vertex   1.375000e+00 -1.375000e+00 2.400000e+01
    endloop
  endfacet
  facet normal 1.000000e+00 1.480297e-16 -0.000000e+00
    outer loop
      vertex   1.375000e+00 -1.375000e+00 2.400000e+01
      vertex   1.375000e+00 1.250000e-01 2.800000e+01
      vertex   1.375000e+00 -1.375000e+00 3.000000e+01
    endloop
  endfacet
  facet normal 1.000000e+00 1.480297e-16 0.000000e+00
    outer loop
      vertex   1.375000e+00 -1.375000e+00 3.000000e+01
      vertex   1.375000e+00 1.250000e-01 2.800000e+01
      vertex   1.375000e+00 1.250000e-01 2.900000e+01
    endloop
  endfacet
  facet normal 1.000000e+00 1.614870e-16 2.018587e-17
    outer loop
      vertex   1.375000e+00 -1.375000e+00 3.000000e+01
      vertex   1.375000e+00 1.250000e-01 2.900000e+01
      vertex   1.375000e+00 1.375000e+00 3.000000e+01
    endloop
  endfacet
  facet normal 0.000000e+00 1.000000e+00 -0.000000e+00
    outer loop
      vertex   1.250000e-01 1.375000e+00 2.800000e+01
      vertex   -1.375000e+00 1.375000e+00 3.000000e+01
      vertex   1.250000e-01 1.375000e+00 2.900000e+01
    endloop
  endfacet
  facet normal 0.000000e+00 1.000000e+00 -0.000000e+00
    outer loop
      vertex   1.250000e-01 1.375000e+00 2.900000e+01
      vertex   -1.375000e+00 1.375000e+00 3.000000e+01
      vertex   1.375000e+00 1.375000e+00 3.000000e+01
    endloop
  endfacet
  facet normal 0.000000e+00 1.000000e+00 0.000000e+00
    outer loop
      vertex   1.250000e-01 1.375000e+00 2.900000e+01
      vertex   1.375000e+00 1.375000e+00 3.000000e+01
      vertex   8.750000e-01 1.375000e+00 2.900000e+01
    endloop
  endfacet
  facet normal -0.000000e+00 1.000000e+00 0.000000e+00
    outer loop
      vertex   8.750000e-01 1.375000e+00 2.900000e+01
      vertex   1.375000e+00 1.375000e+00 3.000000e+01
      vertex   8.750000e-01 1.375000e+00 2.800000e+01
    endloop
  endfacet
  facet normal -0.000000e+00 1.000000e+00 0.000000e+00
    outer loop
      vertex   8.750000e-01 1.375000e+00 2.800000e+01
      vertex   1.375000e+00 1.375000e+00 3.000000e+01
      vertex   1.375000e+00 1.375000e+00 2.400000e+01
    endloop
  endfacet
  facet normal 0.000000e+00 1.000000e+00 0.000000e+00
    outer loop
      vertex   8.750000e-01 1.375000e+00 2.800000e+01
      vertex   1.375000e+00 1.375000e+00 2.400000e+01
      vertex   1.250000e-01 1.375000e+00 2.800000e+01
    endloop
  endfacet
  facet normal 0.000000e+00 1.000000e+00 0.000000e+00
    outer loop
      vertex   1.250000e-01 1.375000e+00 2.800000e+01
      vertex   1.375000e+00 1.375000e+00 2.400000e+01
      vertex   -1.375000e+00 1.375000e+00 2.400000e+01
    endloop
  endfacet
  facet normal 0.000000e+00 1.000000e+00 0.000000e+00
    outer loop
      vertex   1.250000e-01 1.375000e+00 2.800000e+01
      vertex   -1.375000e+00 1.375000e+00 2.400000e+01
      vertex   -1.375000e+00 1.375000e+00 3.000000e+01
    endloop
  endfacet
  facet normal -1.000000e+00 0.000000e+00 3.700743e-17
    outer loop
      vertex   -1.375000e+00 1.375000e+00 3.000000e+01
      vertex   -1.375000e+00 1.375000e+00 2.400000e+01
      vertex   -1.375000e+00 -1.375000e+00 3.000000e+01
    endloop
  endfacet
  facet normal -1.000000e+00 -7.250436e-17 3.776269e-18
    outer loop
      vertex   -1.375000e+00 -1.375000e+00 3.000000e+01
      vertex   -1.375000e+00 1.375000e+00 2.400000e+01
      vertex   -1.375000e+00 1.250000e-01 0.000000e+00
    endloop
  endfacet
  facet normal -1.000000e+00 0.000000e+00 7.401487e-18
    outer loop
      vertex   -1.375000e+00 -1.375000e+00 3.000000e+01
      vertex   -1.375000e+00 1.250000e-01 0.000000e+00
      vertex   -1.375000e+00 -1.375000e+00 0.000000e+00
    endloop
  endfacet
  facet normal 0.000000e+00 -1.000000e+00 0.000000e+00
    outer loop
      vertex   -1.375000e+00 -1.375000e+00 0.000000e+00
      vertex   1.250000e-01 -1.375000e+00 0.000000e+00
      vertex   -1.375000e+00 -1.375000e+00 3.000000e+01
    endloop
  endfacet
  facet normal 0.000000e+00 -1.000000e+00 0.000000e+00
    outer loop
      vertex   -1.375000e+00 -1.375000e+00 3.000000e+01
      vertex   1.250000e-01 -1.375000e+00 0.000000e+00
      vertex   1.375000e+00 -1.375000e+00 2.400000e+01
    endloop
  endfacet
  facet normal 0.000000e+00 -1.000000e+00 0.000000e+00
    outer loop
      vertex   -1.375000e+00 -1.375000e+00 3.000000e+01
      vertex   1.375000e+00 -1.375000e+00 2.400000e+01
      vertex   1.375000e+00 -1.375000e+00 3.000000e+01
    endloop
  endfacet
  facet normal 0.000000e+00 0.000000e+00 1.000000e+00
    outer loop
      vertex   -1.375000e+00 -1.375000e+00 3.000000e+01
      vertex   1.375000e+00 -1.375000e+00 3.000000e+01
      vertex   -1.375000e+00 1.375000e+00 3.000000e+01
    endloop
  endfacet
  facet normal -0.000000e+00 0.000000e+00 1.000000e+00
    outer loop
      vertex   -1.375000e+00 1.375000e+00 3.000000e+01
      vertex   1.375000e+00 -1.375000e+00 3.000000e+01
      vertex   1.375000e+00 1.375000e+00 3.000000e+01
    endloop
  endfacet
  facet normal 0.000000e+00 0.000000e+00 -1.000000e+00
    outer loop
      vertex   1.250000e-01 -1.375000e+00 0.000000e+00
      vertex   -1.375000e+00 -1.375000e+00 0.000000e+00
      vertex   1.250000e-01 1.250000e-01 0.000000e+00
    endloop
  endfacet
  facet normal -0.000000e+00 0.000000e+00 -1.000000e+00
    outer loop
      vertex   1.250000e-01 1.250000e-01 0.000000e+00
      vertex   -1.375000e+00 -1.375000e+00 0.000000e+00
      vertex   -1.375000e+00 1.250000e-01 0.000000e+00
    endloop
  endfacet
endsolid
