solid ASCII
  facet normal 7.071068e-01 -7.071068e-01 0.000000e+00
    outer loop
      vertex   3.187500e+01 -2.087500e+01 5.000000e-01
      vertex   3.187500e+01 -2.087500e+01 0.000000e+00
      vertex   3.287500e+01 -1.987500e+01 5.000000e-01
    endloop
  endfacet
  facet normal 7.071068e-01 -7.071068e-01 0.000000e+00
    outer loop
      vertex   3.287500e+01 -1.987500e+01 5.000000e-01
      vertex   3.187500e+01 -2.087500e+01 0.000000e+00
      vertex   3.287500e+01 -1.987500e+01 0.000000e+00
    endloop
  endfacet
  facet normal -0.000000e+00 -1.000000e+00 -0.000000e+00
    outer loop
      vertex   3.187500e+01 -2.087500e+01 5.000000e-01
      vertex   -3.187500e+01 -2.087500e+01 5.000000e-01
      vertex   3.187500e+01 -2.087500e+01 0.000000e+00
    endloop
  endfacet
  facet normal 0.000000e+00 -1.000000e+00 0.000000e+00
    outer loop
      vertex   3.187500e+01 -2.087500e+01 0.000000e+00
      vertex   -3.187500e+01 -2.087500e+01 5.000000e-01
      vertex   -3.187500e+01 -2.087500e+01 0.000000e+00
    endloop
  endfacet
  facet normal 0.000000e+00 -0.000000e+00 1.000000e+00
    outer loop
      vertex   -3.187500e+01 -2.087500e+01 5.000000e-01
      vertex   3.187500e+01 -2.087500e+01 5.000000e-01
      vertex   -3.287500e+01 -1.987500e+01 5.000000e-01
    endloop
  endfacet
  facet normal -0.000000e+00 0.000000e+00 1.000000e+00
    outer loop
      vertex   -3.287500e+01 -1.987500e+01 5.000000e-01
      vertex   3.187500e+01 -2.087500e+01 5.000000e-01
      vertex   3.287500e+01 -1.987500e+01 5.000000e-01
    endloop
  endfacet
  facet normal 0.000000e+00 0.000000e+00 1.000000e+00
    outer loop
      vertex   -3.287500e+01 -1.987500e+01 5.000000e-01
      vertex   3.287500e+01 -1.987500e+01 5.000000e-01
      vertex   -3.287500e+01 1.987500e+01 5.000000e-01
    endloop
  endfacet
  facet normal -0.000000e+00 0.000000e+00 1.000000e+00
    outer loop
      vertex   -3.287500e+01 1.987500e+01 5.000000e-01
      vertex   3.287500e+01 -1.987500e+01 5.000000e-01
      vertex   3.287500e+01 1.987500e+01 5.000000e-01
    endloop
  endfacet
  facet normal 0.000000e+00 0.000000e+00 1.000000e+00
    outer loop
      vertex   -3.287500e+01 1.987500e+01 5.000000e-01
      vertex   3.287500e+01 1.987500e+01 5.000000e-01
      vertex   -3.187500e+01 2.087500e+01 5.000000e-01
    endloop
  endfacet
  facet normal 0.000000e+00 0.000000e+00 1.000000e+00
    outer loop
      vertex   -3.187500e+01 2.087500e+01 5.000000e-01
      vertex   3.287500e+01 1.987500e+01 5.000000e-01
      vertex   3.187500e+01 2.087500e+01 5.000000e-01
    endloop
  endfacet
  facet normal 7.071068e-01 7.071068e-01 0.000000e+00
    outer loop
      vertex   3.287500e+01 1.987500e+01 5.000000e-01
      vertex   3.287500e+01 1.987500e+01 0.000000e+00
      vertex   3.187500e+01 2.087500e+01 5.000000e-01
    endloop
  endfacet
  facet normal 7.071068e-01 7.071068e-01 0.000000e+00
    outer loop
      vertex   3.187500e+01 2.087500e+01 5.000000e-01
      vertex   3.287500e+01 1.987500e+01 0.000000e+00
      vertex   3.187500e+01 2.087500e+01 0.000000e+00
    endloop
  endfacet
  facet normal 5.572884e-17 1.000000e+00 -0.000000e+00
    outer loop
      vertex   3.187500e+01 2.087500e+01 0.000000e+00
      vertex   -3.187500e+01 2.087500e+01 0.000000e+00
      vertex   3.187500e+01 2.087500e+01 5.000000e-01
    endloop
  endfacet
  facet normal 5.572884e-17 1.000000e+00 0.000000e+00
    outer loop
      vertex   3.187500e+01 2.087500e+01 5.000000e-01
      vertex   -3.187500e+01 2.087500e+01 0.000000e+00
      vertex   -3.187500e+01 2.087500e+01 5.000000e-01
    endloop
  endfacet
  facet normal -7.071068e-01 7.071068e-01 0.000000e+00
    outer loop
      vertex   -3.187500e+01 2.087500e+01 5.000000e-01
      vertex   -3.187500e+01 2.087500e+01 0.000000e+00
      vertex   -3.287500e+01 1.987500e+01 5.000000e-01
    endloop
  endfacet
  facet normal -7.071068e-01 7.071068e-01 0.000000e+00
    outer loop
      vertex   -3.287500e+01 1.987500e+01 5.000000e-01
      vertex   -3.187500e+01 2.087500e+01 0.000000e+00
      vertex   -3.287500e+01 1.987500e+01 0.000000e+00
    endloop
  endfacet
  facet normal -7.071068e-01 -7.071068e-01 -0.000000e+00
    outer loop
      vertex   -3.287500e+01 -1.987500e+01 5.000000e-01
      vertex   -3.287500e+01 -1.987500e+01 0.000000e+00
      vertex   -3.187500e+01 -2.087500e+01 5.000000e-01
    endloop
  endfacet
  facet normal -7.071068e-01 -7.071068e-01 -0.000000e+00
    outer loop
      vertex   -3.187500e+01 -2.087500e+01 5.000000e-01
      vertex   -3.287500e+01 -1.987500e+01 0.000000e+00
      vertex   -3.187500e+01 -2.087500e+01 0.000000e+00
    endloop
  endfacet
  facet normal -1.000000e+00 1.787529e-16 0.000000e+00
    outer loop
      vertex   -3.287500e+01 1.987500e+01 0.000000e+00
      vertex   -3.287500e+01 -1.987500e+01 0.000000e+00
      vertex   -3.287500e+01 1.987500e+01 5.000000e-01
    endloop
  endfacet
  facet normal -1.000000e+00 1.787529e-16 0.000000e+00
    outer loop
      vertex   -3.287500e+01 1.987500e+01 5.000000e-01
      vertex   -3.287500e+01 -1.987500e+01 0.000000e+00
      vertex   -3.287500e+01 -1.987500e+01 5.000000e-01
    endloop
  endfacet
  facet normal 1.000000e+00 0.000000e+00 0.000000e+00
    outer loop
      vertex   3.287500e+01 -1.987500e+01 0.000000e+00
      vertex   3.287500e+01 1.987500e+01 0.000000e+00
      vertex   3.287500e+01 -1.987500e+01 5.000000e-01
    endloop
  endfacet
  facet normal 1.000000e+00 -0.000000e+00 0.000000e+00
    outer loop
      vertex   3.287500e+01 -1.987500e+01 5.000000e-01
      vertex   3.287500e+01 1.987500e+01 0.000000e+00
      vertex   3.287500e+01 1.987500e+01 5.000000e-01
    endloop
  endfacet
  facet normal 0.000000e+00 0.000000e+00 -1.000000e+00
    outer loop
      vertex   3.187500e+01 -2.087500e+01 0.000000e+00
      vertex   -3.187500e+01 -2.087500e+01 0.000000e+00
      vertex   3.287500e+01 -1.987500e+01 0.000000e+00
    endloop
  endfacet
  facet normal -0.000000e+00 0.000000e+00 -1.000000e+00
    outer loop
      vertex   3.287500e+01 -1.987500e+01 0.000000e+00
      vertex   -3.187500e+01 -2.087500e+01 0.000000e+00
      vertex   -3.287500e+01 -1.987500e+01 0.000000e+00
    endloop
  endfacet
  facet normal 0.000000e+00 0.000000e+00 -1.000000e+00
    outer loop
      vertex   3.287500e+01 -1.987500e+01 0.000000e+00
      vertex   -3.287500e+01 -1.987500e+01 0.000000e+00
      vertex   3.287500e+01 1.987500e+01 0.000000e+00
    endloop
  endfacet
  facet normal -0.000000e+00 0.000000e+00 -1.000000e+00
    outer loop
      vertex   3.287500e+01 1.987500e+01 0.000000e+00
      vertex   -3.287500e+01 -1.987500e+01 0.000000e+00
      vertex   -3.287500e+01 1.987500e+01 0.000000e+00
    endloop
  endfacet
  facet normal 0.000000e+00 0.000000e+00 -1.000000e+00
    outer loop
      vertex   3.287500e+01 1.987500e+01 0.000000e+00
      vertex   -3.287500e+01 1.987500e+01 0.000000e+00
      vertex   3.187500e+01 2.087500e+01 0.000000e+00
    endloop
  endfacet
  facet normal -0.000000e+00 0.000000e+00 -1.000000e+00
    outer loop
      vertex   3.187500e+01 2.087500e+01 0.000000e+00
      vertex   -3.287500e+01 1.987500e+01 0.000000e+00
      vertex   -3.187500e+01 2.087500e+01 0.000000e+00
    endloop
  endfacet
endsolid
